<?xml version="1.0" encoding="UTF-8" standalone="no"?>
<!DOCTYPE svg PUBLIC "-//W3C//DTD SVG 1.1//EN"
 "http://www.w3.org/Graphics/SVG/1.1/DTD/svg11.dtd">
<!-- Generated by graphviz version 2.43.0 (0)
 -->
<!-- Title: G Pages: 1 -->
<svg width="3167pt" height="1344pt"
 viewBox="0.00 0.00 3166.50 1344.00" xmlns="http://www.w3.org/2000/svg" xmlns:xlink="http://www.w3.org/1999/xlink">
<g id="graph0" class="graph" transform="scale(1 1) rotate(0) translate(4 1340)">
<title>G</title>
<polygon fill="white" stroke="transparent" points="-4,4 -4,-1340 3162.5,-1340 3162.5,4 -4,4"/>
<!-- C_MERCANTILISMO -->
<g id="node1" class="node">
<title>C_MERCANTILISMO</title>
<polygon fill="none" stroke="black" points="1212.5,-920.5 1212.5,-981.5 1373.5,-981.5 1373.5,-920.5 1212.5,-920.5"/>
<polygon fill="yellow" stroke="transparent" points="1220.5,-924.5 1220.5,-977.5 1365.5,-977.5 1365.5,-924.5 1220.5,-924.5"/>
<text text-anchor="start" x="1228" y="-959.8" font-family="Helvetica,Arial,sans-serif" font-weight="bold" font-size="14.00">CONCEITO</text>
<text text-anchor="start" x="1228" y="-934.8" font-family="Helvetica,Arial,sans-serif" font-size="14.00">&quot;Mercantilismo&quot;</text>
<text text-anchor="start" x="1348" y="-934.8" font-family="Helvetica,Arial,sans-serif" font-size="14.00">&quot;&quot;</text>
</g>
<!-- C_COLONIALISMO -->
<g id="node2" class="node">
<title>C_COLONIALISMO</title>
<polygon fill="none" stroke="black" points="1210,-787 1210,-848 1364,-848 1364,-787 1210,-787"/>
<polygon fill="yellow" stroke="transparent" points="1218,-791 1218,-844 1356,-844 1356,-791 1218,-791"/>
<text text-anchor="start" x="1225" y="-826.3" font-family="Helvetica,Arial,sans-serif" font-weight="bold" font-size="14.00">CONCEITO</text>
<text text-anchor="start" x="1225" y="-801.3" font-family="Helvetica,Arial,sans-serif" font-size="14.00">&quot;Colonialismo&quot;</text>
<text text-anchor="start" x="1338" y="-801.3" font-family="Helvetica,Arial,sans-serif" font-size="14.00">&quot;&quot;</text>
</g>
<!-- C_MERCANTILISMO&#45;&gt;C_COLONIALISMO -->
<g id="edge1" class="edge">
<title>C_MERCANTILISMO&#45;&gt;C_COLONIALISMO</title>
<path fill="none" stroke="black" d="M1291.65,-920.49C1290.82,-902.18 1289.73,-878.41 1288.82,-858.42"/>
<polygon fill="black" stroke="black" points="1292.32,-858.2 1288.36,-848.37 1285.32,-858.52 1292.32,-858.2"/>
<text text-anchor="middle" x="1317.5" y="-880.8" font-family="Helvetica,Arial,sans-serif" font-size="14.00"> &#160;&#160;produz</text>
</g>
<!-- C_EXPANSAO_MARITMA -->
<g id="node5" class="node">
<title>C_EXPANSAO_MARITMA</title>
<polygon fill="none" stroke="black" points="1037.5,-650.5 1037.5,-716.5 1250.5,-716.5 1250.5,-650.5 1037.5,-650.5"/>
<polygon fill="yellow" stroke="transparent" points="1045.5,-654.5 1045.5,-712.5 1242.5,-712.5 1242.5,-654.5 1045.5,-654.5"/>
<image xlink:href="w40/pt.png" width="30px" height="20px" preserveAspectRatio="xMinYMin meet" x="1206" y="-705.5"/>
<text text-anchor="start" x="1053" y="-665.3" font-family="Helvetica,Arial,sans-serif" font-size="14.00">&quot;Expansão Marítima&quot;</text>
<text text-anchor="start" x="1206" y="-665.3" font-family="Helvetica,Arial,sans-serif" font-size="14.00">&quot;&quot;</text>
</g>
<!-- C_COLONIALISMO&#45;&gt;C_EXPANSAO_MARITMA -->
<g id="edge2" class="edge">
<title>C_COLONIALISMO&#45;&gt;C_EXPANSAO_MARITMA</title>
<path fill="none" stroke="black" d="M1226.94,-786.9C1213.55,-778.67 1200.06,-768.94 1189,-758 1179.51,-748.62 1171.18,-736.86 1164.34,-725.51"/>
<polygon fill="black" stroke="black" points="1167.21,-723.47 1159.18,-716.55 1161.14,-726.97 1167.21,-723.47"/>
<text text-anchor="middle" x="1231" y="-746.8" font-family="Helvetica,Arial,sans-serif" font-size="14.00"> &#160;&#160;utiliza&#45;se da</text>
</g>
<!-- E_1500_PORTUGUESES_AMERICA -->
<g id="node10" class="node">
<title>E_1500_PORTUGUESES_AMERICA</title>
<polygon fill="none" stroke="black" points="1037,-508.5 1037,-590.5 1453,-590.5 1453,-508.5 1037,-508.5"/>
<polygon fill="#e1e1e1" stroke="transparent" points="1045,-512.5 1045,-586.5 1445,-586.5 1445,-512.5 1045,-512.5"/>
<text text-anchor="start" x="1052" y="-566.3" font-family="Helvetica,Arial,sans-serif" font-weight="bold" font-size="14.00">1500</text>
<image xlink:href="w40/ptbr.png" width="60px" height="21px" preserveAspectRatio="xMinYMin meet" x="1206" y="-579.5"/>
<text text-anchor="start" x="1052" y="-538.3" font-family="Helvetica,Arial,sans-serif" font-size="14.00">&quot;Invasão da América&quot;</text>
<text text-anchor="start" x="1206" y="-538.3" font-family="Helvetica,Arial,sans-serif" font-size="14.00">&quot;Chegada dos primeiros exploradores </text>
<text text-anchor="start" x="1210.5" y="-523.3" font-family="Helvetica,Arial,sans-serif" font-size="14.00"> europeus no território sulamericano&quot;</text>
</g>
<!-- C_COLONIALISMO&#45;&gt;E_1500_PORTUGUESES_AMERICA -->
<g id="edge10" class="edge">
<title>C_COLONIALISMO&#45;&gt;E_1500_PORTUGUESES_AMERICA</title>
<path fill="none" stroke="black" d="M1282.3,-786.76C1275.21,-741.8 1261.65,-655.97 1252.98,-601.07"/>
<polygon fill="black" stroke="black" points="1256.39,-600.19 1251.37,-590.86 1249.47,-601.28 1256.39,-600.19"/>
<text text-anchor="middle" x="1307.5" y="-679.8" font-family="Helvetica,Arial,sans-serif" font-size="14.00"> &#160;&#160;influencia</text>
</g>
<!-- C_NEOCOLONIALISMO -->
<g id="node31" class="node">
<title>C_NEOCOLONIALISMO</title>
<polygon fill="none" stroke="black" points="1418,-653 1418,-714 1594,-714 1594,-653 1418,-653"/>
<polygon fill="yellow" stroke="transparent" points="1426,-657 1426,-710 1586,-710 1586,-657 1426,-657"/>
<text text-anchor="start" x="1433" y="-692.3" font-family="Helvetica,Arial,sans-serif" font-weight="bold" font-size="14.00">CONCEITO</text>
<text text-anchor="start" x="1433" y="-667.3" font-family="Helvetica,Arial,sans-serif" font-size="14.00">&quot;Neocolonialismo&quot;</text>
<text text-anchor="start" x="1568" y="-667.3" font-family="Helvetica,Arial,sans-serif" font-size="14.00">&quot;&quot;</text>
</g>
<!-- C_COLONIALISMO&#45;&gt;C_NEOCOLONIALISMO -->
<g id="edge35" class="edge">
<title>C_COLONIALISMO&#45;&gt;C_NEOCOLONIALISMO</title>
<path fill="none" stroke="black" d="M1336.15,-786.88C1369.4,-766.84 1413.44,-740.29 1448.35,-719.25"/>
<polygon fill="black" stroke="black" points="1450.26,-722.18 1457.02,-714.02 1446.64,-716.19 1450.26,-722.18"/>
<text text-anchor="middle" x="1429" y="-746.8" font-family="Helvetica,Arial,sans-serif" font-size="14.00"> &#160;&#160;origina</text>
</g>
<!-- C_RACISMO -->
<g id="node3" class="node">
<title>C_RACISMO</title>
<polygon fill="none" stroke="black" points="1056,-920.5 1056,-981.5 1194,-981.5 1194,-920.5 1056,-920.5"/>
<polygon fill="yellow" stroke="transparent" points="1064,-924.5 1064,-977.5 1186,-977.5 1186,-924.5 1064,-924.5"/>
<text text-anchor="start" x="1071" y="-959.8" font-family="Helvetica,Arial,sans-serif" font-weight="bold" font-size="14.00">CONCEITO</text>
<text text-anchor="start" x="1071" y="-934.8" font-family="Helvetica,Arial,sans-serif" font-size="14.00">&quot;Racismo&quot;</text>
<text text-anchor="start" x="1168" y="-934.8" font-family="Helvetica,Arial,sans-serif" font-size="14.00">&quot;&quot;</text>
</g>
<!-- C_RACISMO&#45;&gt;C_COLONIALISMO -->
<g id="edge4" class="edge">
<title>C_RACISMO&#45;&gt;C_COLONIALISMO</title>
<path fill="none" stroke="black" d="M1154,-920.45C1168.03,-906.7 1185.39,-890.45 1202,-877 1211.67,-869.17 1222.34,-861.29 1232.77,-853.95"/>
<polygon fill="black" stroke="black" points="1234.84,-856.77 1241.05,-848.2 1230.84,-851.03 1234.84,-856.77"/>
<text text-anchor="middle" x="1244" y="-880.8" font-family="Helvetica,Arial,sans-serif" font-size="14.00"> &#160;&#160;fundamenta</text>
</g>
<!-- C_ESCRAVISMO -->
<g id="node4" class="node">
<title>C_ESCRAVISMO</title>
<polygon fill="none" stroke="black" points="917.5,-787 917.5,-848 1064.5,-848 1064.5,-787 917.5,-787"/>
<polygon fill="yellow" stroke="transparent" points="925.5,-791 925.5,-844 1056.5,-844 1056.5,-791 925.5,-791"/>
<text text-anchor="start" x="933" y="-826.3" font-family="Helvetica,Arial,sans-serif" font-weight="bold" font-size="14.00">CONCEITO</text>
<text text-anchor="start" x="933" y="-801.3" font-family="Helvetica,Arial,sans-serif" font-size="14.00">&quot;Escravismo&quot;</text>
<text text-anchor="start" x="1039" y="-801.3" font-family="Helvetica,Arial,sans-serif" font-size="14.00">&quot;&quot;</text>
</g>
<!-- C_RACISMO&#45;&gt;C_ESCRAVISMO -->
<g id="edge3" class="edge">
<title>C_RACISMO&#45;&gt;C_ESCRAVISMO</title>
<path fill="none" stroke="black" d="M1094.93,-920.49C1075.32,-901.25 1049.59,-876 1028.63,-855.43"/>
<polygon fill="black" stroke="black" points="1031.02,-852.87 1021.44,-848.37 1026.12,-857.87 1031.02,-852.87"/>
<text text-anchor="middle" x="1089.5" y="-880.8" font-family="Helvetica,Arial,sans-serif" font-size="14.00"> &#160;&#160;produz</text>
</g>
<!-- C_NAZISMO -->
<g id="node28" class="node">
<title>C_NAZISMO</title>
<polygon fill="none" stroke="black" points="1082.5,-799.5 1082.5,-835.5 1179.5,-835.5 1179.5,-799.5 1082.5,-799.5"/>
<text text-anchor="middle" x="1131" y="-813.8" font-family="Helvetica,Arial,sans-serif" font-size="14.00">C_NAZISMO</text>
</g>
<!-- C_RACISMO&#45;&gt;C_NAZISMO -->
<g id="edge31" class="edge">
<title>C_RACISMO&#45;&gt;C_NAZISMO</title>
<path fill="none" stroke="black" d="M1126.35,-920.49C1127.36,-898.2 1128.75,-867.84 1129.74,-846.05"/>
<polygon fill="black" stroke="black" points="1133.25,-845.97 1130.21,-835.82 1126.26,-845.65 1133.25,-845.97"/>
</g>
<!-- C_ESCRAVISMO&#45;&gt;C_EXPANSAO_MARITMA -->
<g id="edge5" class="edge">
<title>C_ESCRAVISMO&#45;&gt;C_EXPANSAO_MARITMA</title>
<path fill="none" stroke="black" d="M1025.34,-786.88C1047.1,-768.1 1075.5,-743.6 1099.05,-723.28"/>
<polygon fill="black" stroke="black" points="1101.55,-725.75 1106.84,-716.56 1096.98,-720.45 1101.55,-725.75"/>
<text text-anchor="middle" x="1102" y="-746.8" font-family="Helvetica,Arial,sans-serif" font-size="14.00"> &#160;&#160;financia</text>
</g>
<!-- C_ESCRAVISMO_PORTUGUES -->
<g id="node6" class="node">
<title>C_ESCRAVISMO_PORTUGUES</title>
<polygon fill="none" stroke="black" points="464.5,-643 464.5,-724 1019.5,-724 1019.5,-643 464.5,-643"/>
<polygon fill="yellow" stroke="transparent" points="472.5,-647 472.5,-720 1011.5,-720 1011.5,-647 472.5,-647"/>
<image xlink:href="w40/pt.png" width="30px" height="20px" preserveAspectRatio="xMinYMin meet" x="651" y="-712.5"/>
<text text-anchor="start" x="480" y="-672.3" font-family="Helvetica,Arial,sans-serif" font-size="14.00">&quot;Escravismo Português&quot;</text>
<text text-anchor="start" x="651" y="-672.3" font-family="Helvetica,Arial,sans-serif" font-size="14.00">&quot;Portugueses recorrem ao comercio de escravizados para </text>
<text text-anchor="start" x="702" y="-657.3" font-family="Helvetica,Arial,sans-serif" font-size="14.00">financiar/lucrar com a expansão maritma&quot;</text>
</g>
<!-- C_ESCRAVISMO&#45;&gt;C_ESCRAVISMO_PORTUGUES -->
<g id="edge6" class="edge">
<title>C_ESCRAVISMO&#45;&gt;C_ESCRAVISMO_PORTUGUES</title>
<path fill="none" stroke="black" d="M935.12,-786.88C902.87,-769.78 861.68,-747.94 825.63,-728.84"/>
<polygon fill="black" stroke="black" points="827.06,-725.63 816.59,-724.04 823.78,-731.82 827.06,-725.63"/>
<text text-anchor="middle" x="900" y="-746.8" font-family="Helvetica,Arial,sans-serif" font-size="14.00"> &#160;&#160;origina</text>
</g>
<!-- C_EXPANSAO_MARITMA&#45;&gt;E_1500_PORTUGUESES_AMERICA -->
<g id="edge11" class="edge">
<title>C_EXPANSAO_MARITMA&#45;&gt;E_1500_PORTUGUESES_AMERICA</title>
<path fill="none" stroke="black" d="M1168.71,-650.21C1180.45,-634.86 1194.74,-616.19 1207.76,-599.17"/>
<polygon fill="black" stroke="black" points="1210.74,-601.04 1214.04,-590.97 1205.18,-596.78 1210.74,-601.04"/>
<text text-anchor="middle" x="1222" y="-612.8" font-family="Helvetica,Arial,sans-serif" font-size="14.00"> &#160;&#160;causa</text>
</g>
<!-- E_1543_PORTUGUESES_JAPAO -->
<g id="node11" class="node">
<title>E_1543_PORTUGUESES_JAPAO</title>
<polygon fill="none" stroke="black" points="521,-509 521,-590 1019,-590 1019,-509 521,-509"/>
<polygon fill="#e1e1e1" stroke="transparent" points="529,-513 529,-586 1011,-586 1011,-513 529,-513"/>
<text text-anchor="start" x="536" y="-565.8" font-family="Helvetica,Arial,sans-serif" font-weight="bold" font-size="14.00">1543</text>
<image xlink:href="w40/ptjp.png" width="60px" height="20px" preserveAspectRatio="xMinYMin meet" x="727" y="-578.5"/>
<text text-anchor="start" x="567" y="-538.3" font-family="Helvetica,Arial,sans-serif" font-size="14.00">&quot;Início da relação</text>
<text text-anchor="start" x="536" y="-523.3" font-family="Helvetica,Arial,sans-serif" font-size="14.00"> comercial com Japoneses&quot;</text>
<text text-anchor="start" x="727" y="-538.3" font-family="Helvetica,Arial,sans-serif" font-size="14.00">&quot;Portugueses chegam a ilha de Tanegashima </text>
<text text-anchor="start" x="813" y="-523.3" font-family="Helvetica,Arial,sans-serif" font-size="14.00"> no sul do Japão&quot;</text>
</g>
<!-- C_EXPANSAO_MARITMA&#45;&gt;E_1543_PORTUGUESES_JAPAO -->
<g id="edge12" class="edge">
<title>C_EXPANSAO_MARITMA&#45;&gt;E_1543_PORTUGUESES_JAPAO</title>
<path fill="none" stroke="black" d="M1096.65,-650.37C1073.71,-636.01 1045.28,-619.89 1018,-609 1003.46,-603.19 988.19,-597.87 972.68,-593.02"/>
<polygon fill="black" stroke="black" points="973.59,-589.63 963,-590.05 971.54,-596.33 973.59,-589.63"/>
<text text-anchor="middle" x="1072" y="-612.8" font-family="Helvetica,Arial,sans-serif" font-size="14.00"> &#160;&#160;causa</text>
</g>
<!-- C_ESCRAVISMO_INDIGENA -->
<g id="node7" class="node">
<title>C_ESCRAVISMO_INDIGENA</title>
<polygon fill="none" stroke="black" points="111,-509 111,-590 275,-590 275,-509 111,-509"/>
<polygon fill="yellow" stroke="transparent" points="119,-513 119,-586 267,-586 267,-513 119,-513"/>
<image xlink:href="w40/pt.png" width="30px" height="20px" preserveAspectRatio="xMinYMin meet" x="230" y="-578.5"/>
<text text-anchor="start" x="126" y="-538.3" font-family="Helvetica,Arial,sans-serif" font-size="14.00">&quot;Escravismo </text>
<text text-anchor="start" x="135" y="-523.3" font-family="Helvetica,Arial,sans-serif" font-size="14.00"> Indígena&quot;</text>
<text text-anchor="start" x="230" y="-530.8" font-family="Helvetica,Arial,sans-serif" font-size="14.00">&quot;&quot;</text>
</g>
<!-- C_ESCRAVISMO_PORTUGUES&#45;&gt;C_ESCRAVISMO_INDIGENA -->
<g id="edge7" class="edge">
<title>C_ESCRAVISMO_PORTUGUES&#45;&gt;C_ESCRAVISMO_INDIGENA</title>
<path fill="none" stroke="black" d="M491.95,-642.94C426.66,-629.93 356.65,-613.58 284.72,-591.05"/>
<polygon fill="black" stroke="black" points="285.61,-587.66 275.02,-587.98 283.5,-594.34 285.61,-587.66"/>
</g>
<!-- C_ESCRAVISMO_AFRICANO -->
<g id="node8" class="node">
<title>C_ESCRAVISMO_AFRICANO</title>
<polygon fill="none" stroke="black" points="293.5,-509 293.5,-590 502.5,-590 502.5,-509 293.5,-509"/>
<polygon fill="yellow" stroke="transparent" points="301.5,-513 301.5,-586 494.5,-586 494.5,-513 301.5,-513"/>
<image xlink:href="w40/pt.png" width="30px" height="20px" preserveAspectRatio="xMinYMin meet" x="458" y="-578.5"/>
<text text-anchor="start" x="331.5" y="-538.3" font-family="Helvetica,Arial,sans-serif" font-size="14.00">&quot;Escravismo </text>
<text text-anchor="start" x="309" y="-523.3" font-family="Helvetica,Arial,sans-serif" font-size="14.00"> de Povos Africanos&quot;</text>
<text text-anchor="start" x="458" y="-530.8" font-family="Helvetica,Arial,sans-serif" font-size="14.00">&quot;&quot;</text>
</g>
<!-- C_ESCRAVISMO_PORTUGUES&#45;&gt;C_ESCRAVISMO_AFRICANO -->
<g id="edge8" class="edge">
<title>C_ESCRAVISMO_PORTUGUES&#45;&gt;C_ESCRAVISMO_AFRICANO</title>
<path fill="none" stroke="black" d="M638.79,-642.9C598.4,-627.4 551.94,-609.57 510.68,-593.74"/>
<polygon fill="black" stroke="black" points="511.73,-590.39 501.14,-590.08 509.22,-596.93 511.73,-590.39"/>
</g>
<!-- C_ESCRAVISMO_PORTUGUES&#45;&gt;E_1500_PORTUGUESES_AMERICA -->
<g id="edge13" class="edge">
<title>C_ESCRAVISMO_PORTUGUES&#45;&gt;E_1500_PORTUGUESES_AMERICA</title>
<path fill="none" stroke="black" d="M841.68,-642.93C874.27,-630.94 910.86,-618.45 945,-609 955.04,-606.22 987.15,-599.64 1026.84,-591.86"/>
<polygon fill="black" stroke="black" points="1027.66,-595.26 1036.8,-589.91 1026.32,-588.39 1027.66,-595.26"/>
<text text-anchor="middle" x="979.5" y="-612.8" font-family="Helvetica,Arial,sans-serif" font-size="14.00"> &#160;&#160;influencia</text>
</g>
<!-- C_ESCRAVISMO_PORTUGUES&#45;&gt;E_1543_PORTUGUESES_JAPAO -->
<g id="edge14" class="edge">
<title>C_ESCRAVISMO_PORTUGUES&#45;&gt;E_1543_PORTUGUESES_JAPAO</title>
<path fill="none" stroke="black" d="M750.4,-642.9C753.25,-629.45 756.48,-614.26 759.47,-600.13"/>
<polygon fill="black" stroke="black" points="762.95,-600.59 761.61,-590.08 756.11,-599.13 762.95,-600.59"/>
<text text-anchor="middle" x="791.5" y="-612.8" font-family="Helvetica,Arial,sans-serif" font-size="14.00"> &#160;&#160;influencia</text>
</g>
<!-- C_GENOCIDIO_INDIGENA -->
<g id="node9" class="node">
<title>C_GENOCIDIO_INDIGENA</title>
<polygon fill="none" stroke="black" points="0,-374.5 0,-456.5 386,-456.5 386,-374.5 0,-374.5"/>
<polygon fill="yellow" stroke="transparent" points="8,-378.5 8,-452.5 378,-452.5 378,-378.5 8,-378.5"/>
<image xlink:href="w40/ptbr.png" width="60px" height="21px" preserveAspectRatio="xMinYMin meet" x="169" y="-445.5"/>
<text text-anchor="start" x="15" y="-404.3" font-family="Helvetica,Arial,sans-serif" font-size="14.00">&quot;Genocídio Indígena&quot;</text>
<text text-anchor="start" x="169" y="-404.3" font-family="Helvetica,Arial,sans-serif" font-size="14.00">&quot;Processo de eliminação gradual </text>
<text text-anchor="start" x="197" y="-389.3" font-family="Helvetica,Arial,sans-serif" font-size="14.00"> da identidade indígena&quot;</text>
</g>
<!-- C_ESCRAVISMO_INDIGENA&#45;&gt;C_GENOCIDIO_INDIGENA -->
<g id="edge9" class="edge">
<title>C_ESCRAVISMO_INDIGENA&#45;&gt;C_GENOCIDIO_INDIGENA</title>
<path fill="none" stroke="black" d="M193,-508.9C193,-495.7 193,-480.83 193,-466.93"/>
<polygon fill="black" stroke="black" points="196.5,-466.53 193,-456.53 189.5,-466.53 196.5,-466.53"/>
<text text-anchor="middle" x="227.5" y="-478.8" font-family="Helvetica,Arial,sans-serif" font-size="14.00"> &#160;&#160;influencia</text>
</g>
<!-- C_ABSOLUTISMO -->
<g id="node12" class="node">
<title>C_ABSOLUTISMO</title>
<polygon fill="none" stroke="black" points="1764,-1274.5 1764,-1335.5 1914,-1335.5 1914,-1274.5 1764,-1274.5"/>
<polygon fill="yellow" stroke="transparent" points="1772,-1278.5 1772,-1331.5 1906,-1331.5 1906,-1278.5 1772,-1278.5"/>
<text text-anchor="start" x="1779" y="-1313.8" font-family="Helvetica,Arial,sans-serif" font-weight="bold" font-size="14.00">CONCEITO</text>
<text text-anchor="start" x="1779" y="-1288.8" font-family="Helvetica,Arial,sans-serif" font-size="14.00">&quot;Absolutismo&quot;</text>
<text text-anchor="start" x="1888" y="-1288.8" font-family="Helvetica,Arial,sans-serif" font-size="14.00">&quot;&quot;</text>
</g>
<!-- E_CRISE_ABSOLUTISMO -->
<g id="node13" class="node">
<title>E_CRISE_ABSOLUTISMO</title>
<polygon fill="none" stroke="black" points="1861,-1174 1861,-1210 2043,-1210 2043,-1174 1861,-1174"/>
<text text-anchor="middle" x="1952" y="-1188.3" font-family="Helvetica,Arial,sans-serif" font-size="14.00">E_CRISE_ABSOLUTISMO</text>
</g>
<!-- C_ABSOLUTISMO&#45;&gt;E_CRISE_ABSOLUTISMO -->
<g id="edge15" class="edge">
<title>C_ABSOLUTISMO&#45;&gt;E_CRISE_ABSOLUTISMO</title>
<path fill="none" stroke="black" d="M1869.28,-1274.25C1887.42,-1256.43 1910.2,-1234.06 1927.26,-1217.31"/>
<polygon fill="black" stroke="black" points="1929.97,-1219.54 1934.65,-1210.04 1925.07,-1214.55 1929.97,-1219.54"/>
<text text-anchor="middle" x="1928" y="-1244.8" font-family="Helvetica,Arial,sans-serif" font-size="14.00"> &#160;&#160;resulta</text>
</g>
<!-- E_SANTA_ALIANCA -->
<g id="node14" class="node">
<title>E_SANTA_ALIANCA</title>
<polygon fill="none" stroke="black" points="1715.5,-933 1715.5,-969 1858.5,-969 1858.5,-933 1715.5,-933"/>
<text text-anchor="middle" x="1787" y="-947.3" font-family="Helvetica,Arial,sans-serif" font-size="14.00">E_SANTA_ALIANCA</text>
</g>
<!-- C_ABSOLUTISMO&#45;&gt;E_SANTA_ALIANCA -->
<g id="edge16" class="edge">
<title>C_ABSOLUTISMO&#45;&gt;E_SANTA_ALIANCA</title>
<path fill="none" stroke="black" d="M1834.61,-1274.29C1824.68,-1207.08 1800.61,-1044.14 1791.03,-979.29"/>
<polygon fill="black" stroke="black" points="1794.44,-978.44 1789.52,-969.06 1787.52,-979.46 1794.44,-978.44"/>
<text text-anchor="middle" x="1840.5" y="-1131.8" font-family="Helvetica,Arial,sans-serif" font-size="14.00"> &#160;&#160;produz</text>
</g>
<!-- E_1789_REVOLUCAO_FRANCESA -->
<g id="node16" class="node">
<title>E_1789_REVOLUCAO_FRANCESA</title>
<polygon fill="none" stroke="black" points="1869.5,-1043.5 1869.5,-1109.5 2088.5,-1109.5 2088.5,-1043.5 1869.5,-1043.5"/>
<polygon fill="#e1e1e1" stroke="transparent" points="1877.5,-1047.5 1877.5,-1105.5 2080.5,-1105.5 2080.5,-1047.5 1877.5,-1047.5"/>
<text text-anchor="start" x="1885" y="-1085.8" font-family="Helvetica,Arial,sans-serif" font-weight="bold" font-size="14.00">1789</text>
<image xlink:href="w40/fr.png" width="30px" height="20px" preserveAspectRatio="xMinYMin meet" x="2044" y="-1098.5"/>
<text text-anchor="start" x="1885" y="-1058.3" font-family="Helvetica,Arial,sans-serif" font-size="14.00">&quot;Revolução Francesa&quot;</text>
<text text-anchor="start" x="2044" y="-1058.3" font-family="Helvetica,Arial,sans-serif" font-size="14.00">&quot;&quot;</text>
</g>
<!-- E_CRISE_ABSOLUTISMO&#45;&gt;E_1789_REVOLUCAO_FRANCESA -->
<g id="edge23" class="edge">
<title>E_CRISE_ABSOLUTISMO&#45;&gt;E_1789_REVOLUCAO_FRANCESA</title>
<path fill="none" stroke="black" d="M1956.1,-1173.76C1959.53,-1159.36 1964.56,-1138.21 1969.03,-1119.41"/>
<polygon fill="black" stroke="black" points="1972.47,-1120.09 1971.38,-1109.55 1965.66,-1118.47 1972.47,-1120.09"/>
<text text-anchor="middle" x="2000.5" y="-1131.8" font-family="Helvetica,Arial,sans-serif" font-size="14.00"> &#160;&#160;influencia</text>
</g>
<!-- E_ANTIGO_REGIME -->
<g id="node22" class="node">
<title>E_ANTIGO_REGIME</title>
<polygon fill="none" stroke="black" points="1550.5,-799.5 1550.5,-835.5 1699.5,-835.5 1699.5,-799.5 1550.5,-799.5"/>
<text text-anchor="middle" x="1625" y="-813.8" font-family="Helvetica,Arial,sans-serif" font-size="14.00">E_ANTIGO_REGIME</text>
</g>
<!-- E_SANTA_ALIANCA&#45;&gt;E_ANTIGO_REGIME -->
<g id="edge25" class="edge">
<title>E_SANTA_ALIANCA&#45;&gt;E_ANTIGO_REGIME</title>
<path fill="none" stroke="black" d="M1751.24,-932.77C1731.54,-922.4 1707.26,-908.09 1688,-892 1671.18,-877.95 1655.15,-859.14 1643.47,-844.07"/>
<polygon fill="black" stroke="black" points="1645.95,-841.54 1637.12,-835.69 1640.37,-845.77 1645.95,-841.54"/>
<text text-anchor="middle" x="1730.5" y="-880.8" font-family="Helvetica,Arial,sans-serif" font-size="14.00"> &#160;&#160;relaciona&#45;se</text>
</g>
<!-- E_CRISE_ANTIGO_REGIME -->
<g id="node23" class="node">
<title>E_CRISE_ANTIGO_REGIME</title>
<polygon fill="none" stroke="black" points="1535.5,-397.5 1535.5,-433.5 1732.5,-433.5 1732.5,-397.5 1535.5,-397.5"/>
<text text-anchor="middle" x="1634" y="-411.8" font-family="Helvetica,Arial,sans-serif" font-size="14.00">E_CRISE_ANTIGO_REGIME</text>
</g>
<!-- E_SANTA_ALIANCA&#45;&gt;E_CRISE_ANTIGO_REGIME -->
<g id="edge26" class="edge">
<title>E_SANTA_ALIANCA&#45;&gt;E_CRISE_ANTIGO_REGIME</title>
<path fill="none" stroke="black" d="M1787,-932.98C1787,-907.91 1787,-859.59 1787,-818.5 1787,-818.5 1787,-818.5 1787,-548.5 1787,-495.28 1733.27,-458.78 1689.49,-437.87"/>
<polygon fill="black" stroke="black" points="1690.87,-434.65 1680.32,-433.65 1687.94,-441.01 1690.87,-434.65"/>
<text text-anchor="middle" x="1817.5" y="-679.8" font-family="Helvetica,Arial,sans-serif" font-size="14.00"> &#160;&#160;precede</text>
</g>
<!-- C_LIBERALISMO -->
<g id="node15" class="node">
<title>C_LIBERALISMO</title>
<polygon fill="none" stroke="black" points="2534,-1161.5 2534,-1222.5 2680,-1222.5 2680,-1161.5 2534,-1161.5"/>
<polygon fill="yellow" stroke="transparent" points="2542,-1165.5 2542,-1218.5 2672,-1218.5 2672,-1165.5 2542,-1165.5"/>
<text text-anchor="start" x="2549" y="-1200.8" font-family="Helvetica,Arial,sans-serif" font-weight="bold" font-size="14.00">CONCEITO</text>
<text text-anchor="start" x="2549" y="-1175.8" font-family="Helvetica,Arial,sans-serif" font-size="14.00">&quot;Liberalismo&quot;</text>
<text text-anchor="start" x="2654" y="-1175.8" font-family="Helvetica,Arial,sans-serif" font-size="14.00">&quot;&quot;</text>
</g>
<!-- C_LIBERALISMO&#45;&gt;E_1789_REVOLUCAO_FRANCESA -->
<g id="edge17" class="edge">
<title>C_LIBERALISMO&#45;&gt;E_1789_REVOLUCAO_FRANCESA</title>
<path fill="none" stroke="black" d="M2533.74,-1181.28C2435.97,-1167.82 2257.62,-1141.55 2107,-1110 2104.31,-1109.44 2101.58,-1108.85 2098.84,-1108.25"/>
<polygon fill="black" stroke="black" points="2099.35,-1104.78 2088.83,-1106.02 2097.83,-1111.62 2099.35,-1104.78"/>
<text text-anchor="middle" x="2305.5" y="-1131.8" font-family="Helvetica,Arial,sans-serif" font-size="14.00"> &#160;&#160;influencia</text>
</g>
<!-- E_INDEPENDENCIA_AMERICANA -->
<g id="node17" class="node">
<title>E_INDEPENDENCIA_AMERICANA</title>
<polygon fill="none" stroke="black" points="2629.5,-1058.5 2629.5,-1094.5 2862.5,-1094.5 2862.5,-1058.5 2629.5,-1058.5"/>
<text text-anchor="middle" x="2746" y="-1072.8" font-family="Helvetica,Arial,sans-serif" font-size="14.00">E_INDEPENDENCIA_AMERICANA</text>
</g>
<!-- C_LIBERALISMO&#45;&gt;E_INDEPENDENCIA_AMERICANA -->
<g id="edge18" class="edge">
<title>C_LIBERALISMO&#45;&gt;E_INDEPENDENCIA_AMERICANA</title>
<path fill="none" stroke="black" d="M2643.16,-1161.48C2666.27,-1142.61 2695.82,-1118.47 2717.32,-1100.92"/>
<polygon fill="black" stroke="black" points="2719.59,-1103.58 2725.13,-1094.54 2715.17,-1098.16 2719.59,-1103.58"/>
<text text-anchor="middle" x="2714.5" y="-1131.8" font-family="Helvetica,Arial,sans-serif" font-size="14.00"> &#160;&#160;influencia</text>
</g>
<!-- E_REVOLUCAO_BURGUESA_PORTUGAL -->
<g id="node18" class="node">
<title>E_REVOLUCAO_BURGUESA_PORTUGAL</title>
<polygon fill="none" stroke="black" points="2324.5,-1058.5 2324.5,-1094.5 2611.5,-1094.5 2611.5,-1058.5 2324.5,-1058.5"/>
<text text-anchor="middle" x="2468" y="-1072.8" font-family="Helvetica,Arial,sans-serif" font-size="14.00">E_REVOLUCAO_BURGUESA_PORTUGAL</text>
</g>
<!-- C_LIBERALISMO&#45;&gt;E_REVOLUCAO_BURGUESA_PORTUGAL -->
<g id="edge19" class="edge">
<title>C_LIBERALISMO&#45;&gt;E_REVOLUCAO_BURGUESA_PORTUGAL</title>
<path fill="none" stroke="black" d="M2570.84,-1161.48C2547.73,-1142.61 2518.18,-1118.47 2496.68,-1100.92"/>
<polygon fill="black" stroke="black" points="2498.83,-1098.16 2488.87,-1094.54 2494.41,-1103.58 2498.83,-1098.16"/>
<text text-anchor="middle" x="2579.5" y="-1131.8" font-family="Helvetica,Arial,sans-serif" font-size="14.00"> &#160;&#160;influencia</text>
</g>
<!-- E_NEOLIBERALISMO -->
<g id="node19" class="node">
<title>E_NEOLIBERALISMO</title>
<polygon fill="none" stroke="black" points="2880.5,-1058.5 2880.5,-1094.5 3035.5,-1094.5 3035.5,-1058.5 2880.5,-1058.5"/>
<text text-anchor="middle" x="2958" y="-1072.8" font-family="Helvetica,Arial,sans-serif" font-size="14.00">E_NEOLIBERALISMO</text>
</g>
<!-- C_LIBERALISMO&#45;&gt;E_NEOLIBERALISMO -->
<g id="edge20" class="edge">
<title>C_LIBERALISMO&#45;&gt;E_NEOLIBERALISMO</title>
<path fill="none" stroke="black" d="M2680.24,-1170C2733.67,-1154.34 2807.69,-1131.95 2872,-1110 2882.75,-1106.33 2894.17,-1102.19 2905.05,-1098.12"/>
<polygon fill="black" stroke="black" points="2906.32,-1101.38 2914.45,-1094.58 2903.86,-1094.83 2906.32,-1101.38"/>
</g>
<!-- C_FASCISMO -->
<g id="node20" class="node">
<title>C_FASCISMO</title>
<polygon fill="none" stroke="black" points="3053.5,-1058.5 3053.5,-1094.5 3158.5,-1094.5 3158.5,-1058.5 3053.5,-1058.5"/>
<text text-anchor="middle" x="3106" y="-1072.8" font-family="Helvetica,Arial,sans-serif" font-size="14.00">C_FASCISMO</text>
</g>
<!-- C_LIBERALISMO&#45;&gt;C_FASCISMO -->
<g id="edge21" class="edge">
<title>C_LIBERALISMO&#45;&gt;C_FASCISMO</title>
<path fill="none" stroke="black" d="M2680.06,-1184.4C2768.47,-1174.86 2920.9,-1153.37 3045,-1110 3053.14,-1107.15 3061.52,-1103.35 3069.36,-1099.34"/>
<polygon fill="black" stroke="black" points="3071.09,-1102.38 3078.27,-1094.59 3067.8,-1096.2 3071.09,-1102.38"/>
</g>
<!-- C_DEMOCRACIA_LIBERAL -->
<g id="node21" class="node">
<title>C_DEMOCRACIA_LIBERAL</title>
<polygon fill="none" stroke="black" points="2116,-1058.5 2116,-1094.5 2306,-1094.5 2306,-1058.5 2116,-1058.5"/>
<text text-anchor="middle" x="2211" y="-1072.8" font-family="Helvetica,Arial,sans-serif" font-size="14.00">C_DEMOCRACIA_LIBERAL</text>
</g>
<!-- C_LIBERALISMO&#45;&gt;C_DEMOCRACIA_LIBERAL -->
<g id="edge22" class="edge">
<title>C_LIBERALISMO&#45;&gt;C_DEMOCRACIA_LIBERAL</title>
<path fill="none" stroke="black" d="M2533.88,-1171.27C2474.93,-1155.22 2389.96,-1131.74 2316,-1110 2302.67,-1106.08 2288.42,-1101.76 2274.86,-1097.59"/>
<polygon fill="black" stroke="black" points="2275.72,-1094.19 2265.14,-1094.58 2273.66,-1100.88 2275.72,-1094.19"/>
</g>
<!-- E_1789_REVOLUCAO_FRANCESA&#45;&gt;E_SANTA_ALIANCA -->
<g id="edge24" class="edge">
<title>E_1789_REVOLUCAO_FRANCESA&#45;&gt;E_SANTA_ALIANCA</title>
<path fill="none" stroke="black" d="M1929.06,-1043.37C1895.48,-1021.78 1852.06,-993.85 1822.1,-974.58"/>
<polygon fill="black" stroke="black" points="1823.95,-971.61 1813.65,-969.14 1820.17,-977.5 1823.95,-971.61"/>
<text text-anchor="middle" x="1923" y="-1013.8" font-family="Helvetica,Arial,sans-serif" font-size="14.00"> &#160;&#160;gerou</text>
</g>
<!-- E_1807_NAPOLEAO_INVADE_PORTUGAL -->
<g id="node24" class="node">
<title>E_1807_NAPOLEAO_INVADE_PORTUGAL</title>
<polygon fill="none" stroke="black" points="1877,-910.5 1877,-991.5 2275,-991.5 2275,-910.5 1877,-910.5"/>
<polygon fill="#e1e1e1" stroke="transparent" points="1885,-914.5 1885,-987.5 2267,-987.5 2267,-914.5 1885,-914.5"/>
<text text-anchor="start" x="1892" y="-967.3" font-family="Helvetica,Arial,sans-serif" font-weight="bold" font-size="14.00">1807</text>
<image xlink:href="w40/fr.png" width="30px" height="20px" preserveAspectRatio="xMinYMin meet" x="2049" y="-980"/>
<text text-anchor="start" x="1892" y="-939.8" font-family="Helvetica,Arial,sans-serif" font-size="14.00">&quot;Franceses ameaçam</text>
<text text-anchor="start" x="1912" y="-924.8" font-family="Helvetica,Arial,sans-serif" font-size="14.00"> invadir Lisboa&quot;</text>
<text text-anchor="start" x="2056.5" y="-939.8" font-family="Helvetica,Arial,sans-serif" font-size="14.00">&quot;Tropas francesas se organizam</text>
<text text-anchor="start" x="2049" y="-924.8" font-family="Helvetica,Arial,sans-serif" font-size="14.00"> para entrar no território português&quot;</text>
</g>
<!-- E_1789_REVOLUCAO_FRANCESA&#45;&gt;E_1807_NAPOLEAO_INVADE_PORTUGAL -->
<g id="edge27" class="edge">
<title>E_1789_REVOLUCAO_FRANCESA&#45;&gt;E_1807_NAPOLEAO_INVADE_PORTUGAL</title>
<path fill="none" stroke="black" d="M2004.23,-1043.37C2014.65,-1030.11 2026.95,-1014.45 2038.39,-999.88"/>
<polygon fill="black" stroke="black" points="2041.22,-1001.94 2044.65,-991.92 2035.72,-997.62 2041.22,-1001.94"/>
<text text-anchor="middle" x="2060.5" y="-1013.8" font-family="Helvetica,Arial,sans-serif" font-size="14.00"> &#160;&#160;precede</text>
</g>
<!-- E_1821_DOM_PEDRO_I_RETORNA -->
<g id="node26" class="node">
<title>E_1821_DOM_PEDRO_I_RETORNA</title>
<polygon fill="none" stroke="black" points="2293,-917.5 2293,-984.5 2663,-984.5 2663,-917.5 2293,-917.5"/>
<polygon fill="#e1e1e1" stroke="transparent" points="2301,-921.5 2301,-980.5 2655,-980.5 2655,-921.5 2301,-921.5"/>
<text text-anchor="start" x="2308" y="-959.8" font-family="Helvetica,Arial,sans-serif" font-weight="bold" font-size="14.00">1821</text>
<image xlink:href="w40/ptbr.png" width="60px" height="21px" preserveAspectRatio="xMinYMin meet" x="2588" y="-973"/>
<text text-anchor="start" x="2308" y="-931.8" font-family="Helvetica,Arial,sans-serif" font-size="14.00">&quot;Dom Pedro I decide retornar para Lisboa&quot;</text>
<text text-anchor="start" x="2588" y="-931.8" font-family="Helvetica,Arial,sans-serif" font-size="14.00">&quot;&#45;&quot;</text>
</g>
<!-- E_REVOLUCAO_BURGUESA_PORTUGAL&#45;&gt;E_1821_DOM_PEDRO_I_RETORNA -->
<g id="edge29" class="edge">
<title>E_REVOLUCAO_BURGUESA_PORTUGAL&#45;&gt;E_1821_DOM_PEDRO_I_RETORNA</title>
<path fill="none" stroke="black" d="M2469.39,-1058.33C2470.72,-1041.96 2472.76,-1016.66 2474.53,-994.84"/>
<polygon fill="black" stroke="black" points="2478.03,-995.03 2475.35,-984.78 2471.05,-994.47 2478.03,-995.03"/>
<text text-anchor="middle" x="2497" y="-1013.8" font-family="Helvetica,Arial,sans-serif" font-size="14.00"> &#160;&#160;causa</text>
</g>
<!-- E_ANTIGO_REGIME&#45;&gt;C_NEOCOLONIALISMO -->
<g id="edge32" class="edge">
<title>E_ANTIGO_REGIME&#45;&gt;C_NEOCOLONIALISMO</title>
<path fill="none" stroke="black" d="M1609.44,-799.24C1591.8,-779.67 1562.51,-747.19 1539.6,-721.77"/>
<polygon fill="black" stroke="black" points="1542,-719.21 1532.71,-714.13 1536.8,-723.9 1542,-719.21"/>
<text text-anchor="middle" x="1601.5" y="-746.8" font-family="Helvetica,Arial,sans-serif" font-size="14.00"> &#160;&#160;promove</text>
</g>
<!-- E_1914_1918_PRIMEIRA_GUERRA -->
<g id="node29" class="node">
<title>E_1914_1918_PRIMEIRA_GUERRA</title>
<polygon fill="none" stroke="black" points="1375,-261.5 1375,-322.5 1619,-322.5 1619,-261.5 1375,-261.5"/>
<polygon fill="#faa0a0" stroke="transparent" points="1383,-265.5 1383,-318.5 1611,-318.5 1611,-265.5 1383,-265.5"/>
<text text-anchor="start" x="1390" y="-300.8" font-family="Helvetica,Arial,sans-serif" font-weight="bold" font-size="14.00">1914&#45;1918</text>
<image xlink:href="w40/us.png" width="30px" height="15px" preserveAspectRatio="xMinYMin meet" x="1574" y="-311"/>
<text text-anchor="start" x="1390" y="-275.8" font-family="Helvetica,Arial,sans-serif" font-size="14.00">&quot;Primeira Guerra Mundial&quot;</text>
<text text-anchor="start" x="1574" y="-275.8" font-family="Helvetica,Arial,sans-serif" font-size="14.00">&quot;&quot;</text>
</g>
<!-- E_CRISE_ANTIGO_REGIME&#45;&gt;E_1914_1918_PRIMEIRA_GUERRA -->
<g id="edge37" class="edge">
<title>E_CRISE_ANTIGO_REGIME&#45;&gt;E_1914_1918_PRIMEIRA_GUERRA</title>
<path fill="none" stroke="black" d="M1614.66,-397.35C1594.88,-379.8 1563.53,-352 1538.16,-329.5"/>
<polygon fill="black" stroke="black" points="1540.3,-326.72 1530.5,-322.71 1535.66,-331.96 1540.3,-326.72"/>
<text text-anchor="middle" x="1599.5" y="-344.8" font-family="Helvetica,Arial,sans-serif" font-size="14.00"> &#160;&#160;influencia</text>
</g>
<!-- E_1807_MUDANCA_CORTE -->
<g id="node25" class="node">
<title>E_1807_MUDANCA_CORTE</title>
<polygon fill="none" stroke="black" points="1929.5,-776.5 1929.5,-858.5 2300.5,-858.5 2300.5,-776.5 1929.5,-776.5"/>
<polygon fill="#e1e1e1" stroke="transparent" points="1937.5,-780.5 1937.5,-854.5 2292.5,-854.5 2292.5,-780.5 1937.5,-780.5"/>
<text text-anchor="start" x="1945" y="-834.3" font-family="Helvetica,Arial,sans-serif" font-weight="bold" font-size="14.00">1807</text>
<image xlink:href="w40/ptbr.png" width="60px" height="21px" preserveAspectRatio="xMinYMin meet" x="2087" y="-847.5"/>
<text text-anchor="start" x="1945" y="-806.3" font-family="Helvetica,Arial,sans-serif" font-size="14.00">&quot;Mudança da Corte</text>
<text text-anchor="start" x="1966.5" y="-791.3" font-family="Helvetica,Arial,sans-serif" font-size="14.00">Portuguesa&quot;</text>
<text text-anchor="start" x="2087" y="-806.3" font-family="Helvetica,Arial,sans-serif" font-size="14.00">&quot;Monarquia portuguesa migra de</text>
<text text-anchor="start" x="2093.5" y="-791.3" font-family="Helvetica,Arial,sans-serif" font-size="14.00"> Lisboa para o Rio de Janeiro.&quot;</text>
</g>
<!-- E_1807_NAPOLEAO_INVADE_PORTUGAL&#45;&gt;E_1807_MUDANCA_CORTE -->
<g id="edge28" class="edge">
<title>E_1807_NAPOLEAO_INVADE_PORTUGAL&#45;&gt;E_1807_MUDANCA_CORTE</title>
<path fill="none" stroke="black" d="M2087.81,-910.19C2091.7,-897.05 2096.09,-882.26 2100.18,-868.47"/>
<polygon fill="black" stroke="black" points="2103.61,-869.21 2103.1,-858.63 2096.9,-867.22 2103.61,-869.21"/>
<text text-anchor="middle" x="2120" y="-880.8" font-family="Helvetica,Arial,sans-serif" font-size="14.00"> &#160;&#160;causa</text>
</g>
<!-- E_1889_GOLPE_REPUBLICA -->
<g id="node27" class="node">
<title>E_1889_GOLPE_REPUBLICA</title>
<polygon fill="none" stroke="black" points="1866,-642.5 1866,-724.5 2390,-724.5 2390,-642.5 1866,-642.5"/>
<polygon fill="#e1e1e1" stroke="transparent" points="1874,-646.5 1874,-720.5 2382,-720.5 2382,-646.5 1874,-646.5"/>
<text text-anchor="start" x="1881" y="-700.3" font-family="Helvetica,Arial,sans-serif" font-weight="bold" font-size="14.00">1889</text>
<image xlink:href="w40/br.png" width="30px" height="21px" preserveAspectRatio="xMinYMin meet" x="2035" y="-713.5"/>
<text text-anchor="start" x="1881" y="-672.3" font-family="Helvetica,Arial,sans-serif" font-size="14.00">&quot;Golpe da República&quot;</text>
<text text-anchor="start" x="2035" y="-672.3" font-family="Helvetica,Arial,sans-serif" font-size="14.00">&quot;Dom Pedro II é removido do poder por uma associação</text>
<text text-anchor="start" x="2044" y="-657.3" font-family="Helvetica,Arial,sans-serif" font-size="14.00"> entre militares golpistas e a burguesia escravocrata.&quot;</text>
</g>
<!-- E_1807_MUDANCA_CORTE&#45;&gt;E_1889_GOLPE_REPUBLICA -->
<g id="edge30" class="edge">
<title>E_1807_MUDANCA_CORTE&#45;&gt;E_1889_GOLPE_REPUBLICA</title>
<path fill="none" stroke="black" d="M2118.97,-776.18C2120.26,-763.13 2121.7,-748.49 2123.05,-734.81"/>
<polygon fill="black" stroke="black" points="2126.56,-734.87 2124.05,-724.57 2119.59,-734.18 2126.56,-734.87"/>
<text text-anchor="middle" x="2145" y="-746.8" font-family="Helvetica,Arial,sans-serif" font-size="14.00"> &#160;&#160;causa</text>
</g>
<!-- E_1939_1945_SEGUNDA_GUERRA -->
<g id="node30" class="node">
<title>E_1939_1945_SEGUNDA_GUERRA</title>
<polygon fill="none" stroke="black" points="1373.5,-148.5 1373.5,-209.5 1620.5,-209.5 1620.5,-148.5 1373.5,-148.5"/>
<polygon fill="#faa0a0" stroke="transparent" points="1381.5,-152.5 1381.5,-205.5 1612.5,-205.5 1612.5,-152.5 1381.5,-152.5"/>
<text text-anchor="start" x="1389" y="-187.8" font-family="Helvetica,Arial,sans-serif" font-weight="bold" font-size="14.00">1939&#45;1945</text>
<image xlink:href="w40/us.png" width="30px" height="15px" preserveAspectRatio="xMinYMin meet" x="1576" y="-198"/>
<text text-anchor="start" x="1389" y="-162.8" font-family="Helvetica,Arial,sans-serif" font-size="14.00">&quot;Segunda Guerra Mundial&quot;</text>
<text text-anchor="start" x="1576" y="-162.8" font-family="Helvetica,Arial,sans-serif" font-size="14.00">&quot;&quot;</text>
</g>
<!-- E_1914_1918_PRIMEIRA_GUERRA&#45;&gt;E_1939_1945_SEGUNDA_GUERRA -->
<g id="edge38" class="edge">
<title>E_1914_1918_PRIMEIRA_GUERRA&#45;&gt;E_1939_1945_SEGUNDA_GUERRA</title>
<path fill="none" stroke="black" d="M1497,-261.25C1497,-248.56 1497,-233.56 1497,-219.93"/>
<polygon fill="black" stroke="black" points="1500.5,-219.83 1497,-209.83 1493.5,-219.83 1500.5,-219.83"/>
<text text-anchor="middle" x="1527.5" y="-231.8" font-family="Helvetica,Arial,sans-serif" font-size="14.00"> &#160;&#160;precede</text>
</g>
<!-- E_1946_CARTA_NACOES_UNIDAS -->
<g id="node33" class="node">
<title>E_1946_CARTA_NACOES_UNIDAS</title>
<polygon fill="none" stroke="black" points="1276.5,-74.5 1276.5,-110.5 1515.5,-110.5 1515.5,-74.5 1276.5,-74.5"/>
<text text-anchor="middle" x="1396" y="-88.8" font-family="Helvetica,Arial,sans-serif" font-size="14.00">E_1946_CARTA_NACOES_UNIDAS</text>
</g>
<!-- E_1939_1945_SEGUNDA_GUERRA&#45;&gt;E_1946_CARTA_NACOES_UNIDAS -->
<g id="edge39" class="edge">
<title>E_1939_1945_SEGUNDA_GUERRA&#45;&gt;E_1946_CARTA_NACOES_UNIDAS</title>
<path fill="none" stroke="black" d="M1461.68,-148.45C1449.38,-138.16 1435.76,-126.77 1424.13,-117.04"/>
<polygon fill="black" stroke="black" points="1426.35,-114.33 1416.44,-110.6 1421.86,-119.7 1426.35,-114.33"/>
</g>
<!-- E_GUERRA_FRIA -->
<g id="node34" class="node">
<title>E_GUERRA_FRIA</title>
<polygon fill="none" stroke="black" points="1534,-74.5 1534,-110.5 1664,-110.5 1664,-74.5 1534,-74.5"/>
<text text-anchor="middle" x="1599" y="-88.8" font-family="Helvetica,Arial,sans-serif" font-size="14.00">E_GUERRA_FRIA</text>
</g>
<!-- E_1939_1945_SEGUNDA_GUERRA&#45;&gt;E_GUERRA_FRIA -->
<g id="edge40" class="edge">
<title>E_1939_1945_SEGUNDA_GUERRA&#45;&gt;E_GUERRA_FRIA</title>
<path fill="none" stroke="black" d="M1532.67,-148.45C1545.09,-138.16 1558.84,-126.77 1570.59,-117.04"/>
<polygon fill="black" stroke="black" points="1572.89,-119.67 1578.36,-110.6 1568.43,-114.28 1572.89,-119.67"/>
</g>
<!-- C_NEOCOLONIALISMO&#45;&gt;E_1914_1918_PRIMEIRA_GUERRA -->
<g id="edge36" class="edge">
<title>C_NEOCOLONIALISMO&#45;&gt;E_1914_1918_PRIMEIRA_GUERRA</title>
<path fill="none" stroke="black" d="M1504.07,-652.84C1502.98,-634.94 1501.7,-611.67 1501,-591 1497.85,-498.51 1497.15,-389.79 1497.01,-332.67"/>
<polygon fill="black" stroke="black" points="1500.51,-332.61 1496.99,-322.62 1493.51,-332.62 1500.51,-332.61"/>
<text text-anchor="middle" x="1532.5" y="-478.8" font-family="Helvetica,Arial,sans-serif" font-size="14.00"> &#160;&#160;influencia</text>
</g>
<!-- E_DISPUTAS_TERRITORIAIS_AFRICA -->
<g id="node32" class="node">
<title>E_DISPUTAS_TERRITORIAIS_AFRICA</title>
<polygon fill="none" stroke="black" points="1509.5,-519 1509.5,-580 1758.5,-580 1758.5,-519 1509.5,-519"/>
<polygon fill="#e1e1e1" stroke="transparent" points="1517.5,-523 1517.5,-576 1750.5,-576 1750.5,-523 1517.5,-523"/>
<text text-anchor="start" x="1525" y="-558.3" font-family="Helvetica,Arial,sans-serif" font-weight="bold" font-size="14.00">&#45;</text>
<text text-anchor="start" x="1525" y="-533.3" font-family="Helvetica,Arial,sans-serif" font-size="14.00">&quot;Disputas territoriais na África&quot;</text>
<text text-anchor="start" x="1733" y="-533.3" font-family="Helvetica,Arial,sans-serif" font-size="14.00">&quot;&quot;</text>
</g>
<!-- C_NEOCOLONIALISMO&#45;&gt;E_DISPUTAS_TERRITORIAIS_AFRICA -->
<g id="edge33" class="edge">
<title>C_NEOCOLONIALISMO&#45;&gt;E_DISPUTAS_TERRITORIAIS_AFRICA</title>
<path fill="none" stroke="black" d="M1534.73,-652.88C1553.5,-633.52 1578.17,-608.08 1598.21,-587.41"/>
<polygon fill="black" stroke="black" points="1600.92,-589.64 1605.37,-580.02 1595.9,-584.77 1600.92,-589.64"/>
<text text-anchor="middle" x="1599" y="-612.8" font-family="Helvetica,Arial,sans-serif" font-size="14.00"> &#160;&#160;origina</text>
</g>
<!-- E_DISPUTAS_TERRITORIAIS_AFRICA&#45;&gt;E_CRISE_ANTIGO_REGIME -->
<g id="edge34" class="edge">
<title>E_DISPUTAS_TERRITORIAIS_AFRICA&#45;&gt;E_CRISE_ANTIGO_REGIME</title>
<path fill="none" stroke="black" d="M1634,-518.88C1634,-496.38 1634,-465.68 1634,-443.78"/>
<polygon fill="black" stroke="black" points="1637.5,-443.51 1634,-433.51 1630.5,-443.51 1637.5,-443.51"/>
<text text-anchor="middle" x="1668.5" y="-478.8" font-family="Helvetica,Arial,sans-serif" font-size="14.00"> &#160;&#160;influencia</text>
</g>
<!-- E_1947_CRIACAO_ONU -->
<g id="node35" class="node">
<title>E_1947_CRIACAO_ONU</title>
<polygon fill="none" stroke="black" points="1310.5,-0.5 1310.5,-36.5 1481.5,-36.5 1481.5,-0.5 1310.5,-0.5"/>
<text text-anchor="middle" x="1396" y="-14.8" font-family="Helvetica,Arial,sans-serif" font-size="14.00">E_1947_CRIACAO_ONU</text>
</g>
<!-- E_1946_CARTA_NACOES_UNIDAS&#45;&gt;E_1947_CRIACAO_ONU -->
<g id="edge41" class="edge">
<title>E_1946_CARTA_NACOES_UNIDAS&#45;&gt;E_1947_CRIACAO_ONU</title>
<path fill="none" stroke="black" d="M1396,-74.44C1396,-66.31 1396,-56.38 1396,-47.2"/>
<polygon fill="black" stroke="black" points="1399.5,-46.94 1396,-36.94 1392.5,-46.94 1399.5,-46.94"/>
</g>
</g>
</svg>
