<?xml version="1.0" encoding="UTF-8" standalone="no"?>
<!DOCTYPE svg PUBLIC "-//W3C//DTD SVG 1.1//EN"
 "http://www.w3.org/Graphics/SVG/1.1/DTD/svg11.dtd">
<!-- Generated by graphviz version 2.43.0 (0)
 -->
<!-- Title: G Pages: 1 -->
<svg width="1688pt" height="493pt"
 viewBox="0.00 0.00 1687.50 493.00" xmlns="http://www.w3.org/2000/svg" xmlns:xlink="http://www.w3.org/1999/xlink">
<g id="graph0" class="graph" transform="scale(1 1) rotate(0) translate(4 489)">
<title>G</title>
<polygon fill="white" stroke="transparent" points="-4,4 -4,-489 1683.5,-489 1683.5,4 -4,4"/>
<!-- C_ESCRAVISMO -->
<g id="node1" class="node">
<title>C_ESCRAVISMO</title>
<polygon fill="none" stroke="black" points="584,-413 584,-474 731,-474 731,-413 584,-413"/>
<polygon fill="yellow" stroke="transparent" points="592,-417 592,-470 723,-470 723,-417 592,-417"/>
<text text-anchor="start" x="599.5" y="-452.3" font-family="Helvetica,Arial,sans-serif" font-weight="bold" font-size="14.00">CONCEITO</text>
<text text-anchor="start" x="599.5" y="-427.3" font-family="Helvetica,Arial,sans-serif" font-size="14.00">&quot;Escravismo&quot;</text>
<text text-anchor="start" x="705.5" y="-427.3" font-family="Helvetica,Arial,sans-serif" font-size="14.00">&quot;&quot;</text>
</g>
<!-- C_EXPANSAO_MARITMA -->
<g id="node2" class="node">
<title>C_EXPANSAO_MARITMA</title>
<polygon fill="none" stroke="black" points="349,-276.5 349,-342.5 562,-342.5 562,-276.5 349,-276.5"/>
<polygon fill="yellow" stroke="transparent" points="357,-280.5 357,-338.5 554,-338.5 554,-280.5 357,-280.5"/>
<image xlink:href="w40/pt.png" width="30px" height="20px" preserveAspectRatio="xMinYMin meet" x="517.5" y="-331.5"/>
<text text-anchor="start" x="364.5" y="-291.3" font-family="Helvetica,Arial,sans-serif" font-size="14.00">&quot;Expansão Marítima&quot;</text>
<text text-anchor="start" x="517.5" y="-291.3" font-family="Helvetica,Arial,sans-serif" font-size="14.00">&quot;&quot;</text>
</g>
<!-- C_ESCRAVISMO&#45;&gt;C_EXPANSAO_MARITMA -->
<g id="edge1" class="edge">
<title>C_ESCRAVISMO&#45;&gt;C_EXPANSAO_MARITMA</title>
<path fill="none" stroke="black" d="M612.17,-412.88C582.93,-393.77 544.64,-368.75 513.23,-348.22"/>
<polygon fill="black" stroke="black" points="514.85,-345.1 504.57,-342.56 511.02,-350.96 514.85,-345.1"/>
<text text-anchor="middle" x="592.5" y="-372.8" font-family="Helvetica,Arial,sans-serif" font-size="14.00"> &#160;&#160;financia</text>
</g>
<!-- C_ESCRAVISMO_PORTUGUES -->
<g id="node3" class="node">
<title>C_ESCRAVISMO_PORTUGUES</title>
<polygon fill="none" stroke="black" points="580,-269 580,-350 1137,-350 1137,-269 580,-269"/>
<polygon fill="yellow" stroke="transparent" points="588,-273 588,-346 1129,-346 1129,-273 588,-273"/>
<image xlink:href="w40/pt.png" width="30px" height="20px" preserveAspectRatio="xMinYMin meet" x="767.5" y="-338.5"/>
<text text-anchor="start" x="595.5" y="-298.3" font-family="Helvetica,Arial,sans-serif" font-size="14.00">&quot;Escravismo Português&quot;</text>
<text text-anchor="start" x="767.5" y="-298.3" font-family="Helvetica,Arial,sans-serif" font-size="14.00">&quot;Portugueses recorrem ao comercio de escravizados para </text>
<text text-anchor="start" x="818.5" y="-283.3" font-family="Helvetica,Arial,sans-serif" font-size="14.00">financiar/lucrar com a expansão maritma&quot;</text>
</g>
<!-- C_ESCRAVISMO&#45;&gt;C_ESCRAVISMO_PORTUGUES -->
<g id="edge2" class="edge">
<title>C_ESCRAVISMO&#45;&gt;C_ESCRAVISMO_PORTUGUES</title>
<path fill="none" stroke="black" d="M702.61,-412.88C728.31,-396 761.05,-374.5 789.88,-355.57"/>
<polygon fill="black" stroke="black" points="791.85,-358.45 798.29,-350.04 788.01,-352.6 791.85,-358.45"/>
<text text-anchor="middle" x="790.5" y="-372.8" font-family="Helvetica,Arial,sans-serif" font-size="14.00"> &#160;&#160;origina</text>
</g>
<!-- E_1500_PORTUGUESES_AMERICA -->
<g id="node7" class="node">
<title>E_1500_PORTUGUESES_AMERICA</title>
<polygon fill="none" stroke="black" points="0,-134.5 0,-216.5 417,-216.5 417,-134.5 0,-134.5"/>
<polygon fill="#e1e1e1" stroke="transparent" points="8,-138.5 8,-212.5 409,-212.5 409,-138.5 8,-138.5"/>
<text text-anchor="start" x="15.5" y="-192.3" font-family="Helvetica,Arial,sans-serif" font-weight="bold" font-size="14.00">1500</text>
<image xlink:href="w40/ptbr.png" width="60px" height="21px" preserveAspectRatio="xMinYMin meet" x="170.5" y="-205.5"/>
<text text-anchor="start" x="15.5" y="-164.3" font-family="Helvetica,Arial,sans-serif" font-size="14.00">&quot;Invasão da América&quot;</text>
<text text-anchor="start" x="170.5" y="-164.3" font-family="Helvetica,Arial,sans-serif" font-size="14.00">&quot;Chegada dos primeiros exploradores </text>
<text text-anchor="start" x="175" y="-149.3" font-family="Helvetica,Arial,sans-serif" font-size="14.00"> europeus no território sulamericano&quot;</text>
</g>
<!-- C_EXPANSAO_MARITMA&#45;&gt;E_1500_PORTUGUESES_AMERICA -->
<g id="edge6" class="edge">
<title>C_EXPANSAO_MARITMA&#45;&gt;E_1500_PORTUGUESES_AMERICA</title>
<path fill="none" stroke="black" d="M395.39,-276.38C364.46,-259.85 326.24,-239.42 292.44,-221.36"/>
<polygon fill="black" stroke="black" points="293.97,-218.21 283.5,-216.58 290.67,-224.38 293.97,-218.21"/>
<text text-anchor="middle" x="363.5" y="-238.8" font-family="Helvetica,Arial,sans-serif" font-size="14.00"> &#160;&#160;causa</text>
</g>
<!-- E_1543_PORTUGUESES_JAPAO -->
<g id="node8" class="node">
<title>E_1543_PORTUGUESES_JAPAO</title>
<polygon fill="none" stroke="black" points="434.5,-135 434.5,-216 934.5,-216 934.5,-135 434.5,-135"/>
<polygon fill="#e1e1e1" stroke="transparent" points="442.5,-139 442.5,-212 926.5,-212 926.5,-139 442.5,-139"/>
<text text-anchor="start" x="449.5" y="-191.8" font-family="Helvetica,Arial,sans-serif" font-weight="bold" font-size="14.00">1543</text>
<image xlink:href="w40/ptjp.png" width="60px" height="20px" preserveAspectRatio="xMinYMin meet" x="640.5" y="-204.5"/>
<text text-anchor="start" x="480.5" y="-164.3" font-family="Helvetica,Arial,sans-serif" font-size="14.00">&quot;Início da relação</text>
<text text-anchor="start" x="449.5" y="-149.3" font-family="Helvetica,Arial,sans-serif" font-size="14.00"> comercial com Japoneses&quot;</text>
<text text-anchor="start" x="640.5" y="-164.3" font-family="Helvetica,Arial,sans-serif" font-size="14.00">&quot;Portugueses chegam a ilha de Tanegashima </text>
<text text-anchor="start" x="727.5" y="-149.3" font-family="Helvetica,Arial,sans-serif" font-size="14.00"> no sul do Japão&quot;</text>
</g>
<!-- C_EXPANSAO_MARITMA&#45;&gt;E_1543_PORTUGUESES_JAPAO -->
<g id="edge7" class="edge">
<title>C_EXPANSAO_MARITMA&#45;&gt;E_1543_PORTUGUESES_JAPAO</title>
<path fill="none" stroke="black" d="M493.24,-276.25C510.36,-262.53 531.26,-246.96 551.5,-235 559.97,-229.99 568.94,-225.15 578.07,-220.55"/>
<polygon fill="black" stroke="black" points="579.83,-223.59 587.24,-216.02 576.73,-217.31 579.83,-223.59"/>
<text text-anchor="middle" x="575.5" y="-238.8" font-family="Helvetica,Arial,sans-serif" font-size="14.00"> &#160;&#160;causa</text>
</g>
<!-- C_ESCRAVISMO_INDIGENA -->
<g id="node4" class="node">
<title>C_ESCRAVISMO_INDIGENA</title>
<polygon fill="none" stroke="black" points="952.5,-135 952.5,-216 1116.5,-216 1116.5,-135 952.5,-135"/>
<polygon fill="yellow" stroke="transparent" points="960.5,-139 960.5,-212 1108.5,-212 1108.5,-139 960.5,-139"/>
<image xlink:href="w40/pt.png" width="30px" height="20px" preserveAspectRatio="xMinYMin meet" x="1071.5" y="-204.5"/>
<text text-anchor="start" x="967.5" y="-164.3" font-family="Helvetica,Arial,sans-serif" font-size="14.00">&quot;Escravismo </text>
<text text-anchor="start" x="976.5" y="-149.3" font-family="Helvetica,Arial,sans-serif" font-size="14.00"> Indígena&quot;</text>
<text text-anchor="start" x="1071.5" y="-156.8" font-family="Helvetica,Arial,sans-serif" font-size="14.00">&quot;&quot;</text>
</g>
<!-- C_ESCRAVISMO_PORTUGUES&#45;&gt;C_ESCRAVISMO_INDIGENA -->
<g id="edge3" class="edge">
<title>C_ESCRAVISMO_PORTUGUES&#45;&gt;C_ESCRAVISMO_INDIGENA</title>
<path fill="none" stroke="black" d="M911.31,-268.9C930.88,-254.21 953.25,-237.44 973.49,-222.25"/>
<polygon fill="black" stroke="black" points="975.83,-224.88 981.73,-216.08 971.63,-219.28 975.83,-224.88"/>
</g>
<!-- C_ESCRAVISMO_AFRICANO -->
<g id="node5" class="node">
<title>C_ESCRAVISMO_AFRICANO</title>
<polygon fill="none" stroke="black" points="1134.5,-135 1134.5,-216 1344.5,-216 1344.5,-135 1134.5,-135"/>
<polygon fill="yellow" stroke="transparent" points="1142.5,-139 1142.5,-212 1336.5,-212 1336.5,-139 1142.5,-139"/>
<image xlink:href="w40/pt.png" width="30px" height="20px" preserveAspectRatio="xMinYMin meet" x="1299.5" y="-204.5"/>
<text text-anchor="start" x="1172.5" y="-164.3" font-family="Helvetica,Arial,sans-serif" font-size="14.00">&quot;Escravismo </text>
<text text-anchor="start" x="1149.5" y="-149.3" font-family="Helvetica,Arial,sans-serif" font-size="14.00"> de Povos Africanos&quot;</text>
<text text-anchor="start" x="1299.5" y="-156.8" font-family="Helvetica,Arial,sans-serif" font-size="14.00">&quot;&quot;</text>
</g>
<!-- C_ESCRAVISMO_PORTUGUES&#45;&gt;C_ESCRAVISMO_AFRICANO -->
<g id="edge4" class="edge">
<title>C_ESCRAVISMO_PORTUGUES&#45;&gt;C_ESCRAVISMO_AFRICANO</title>
<path fill="none" stroke="black" d="M974.91,-268.92C1019.18,-253.79 1070.29,-236.23 1124.75,-217.25"/>
<polygon fill="black" stroke="black" points="1125.94,-220.54 1134.23,-213.95 1123.64,-213.93 1125.94,-220.54"/>
</g>
<!-- C_ESCRAVISMO_PORTUGUES&#45;&gt;E_1500_PORTUGUESES_AMERICA -->
<g id="edge8" class="edge">
<title>C_ESCRAVISMO_PORTUGUES&#45;&gt;E_1500_PORTUGUESES_AMERICA</title>
<path fill="none" stroke="black" d="M735.71,-268.94C692.98,-256.44 644.48,-243.64 599.5,-235 526.28,-220.93 504.24,-227.54 427.37,-217.2"/>
<polygon fill="black" stroke="black" points="427.59,-213.7 417.2,-215.78 426.62,-220.63 427.59,-213.7"/>
<text text-anchor="middle" x="699" y="-238.8" font-family="Helvetica,Arial,sans-serif" font-size="14.00"> &#160;&#160;influencia</text>
</g>
<!-- C_ESCRAVISMO_PORTUGUES&#45;&gt;E_1543_PORTUGUESES_JAPAO -->
<g id="edge9" class="edge">
<title>C_ESCRAVISMO_PORTUGUES&#45;&gt;E_1543_PORTUGUESES_JAPAO</title>
<path fill="none" stroke="black" d="M806.29,-268.9C786.94,-254.21 764.83,-237.44 744.81,-222.25"/>
<polygon fill="black" stroke="black" points="746.75,-219.33 736.67,-216.08 742.52,-224.91 746.75,-219.33"/>
<text text-anchor="middle" x="812" y="-238.8" font-family="Helvetica,Arial,sans-serif" font-size="14.00"> &#160;&#160;influencia</text>
</g>
<!-- C_GENOCIDIO_INDIGENA -->
<g id="node6" class="node">
<title>C_GENOCIDIO_INDIGENA</title>
<polygon fill="none" stroke="black" points="841.5,-0.5 841.5,-82.5 1227.5,-82.5 1227.5,-0.5 841.5,-0.5"/>
<polygon fill="yellow" stroke="transparent" points="849.5,-4.5 849.5,-78.5 1219.5,-78.5 1219.5,-4.5 849.5,-4.5"/>
<image xlink:href="w40/ptbr.png" width="60px" height="21px" preserveAspectRatio="xMinYMin meet" x="1010.5" y="-71.5"/>
<text text-anchor="start" x="856.5" y="-30.3" font-family="Helvetica,Arial,sans-serif" font-size="14.00">&quot;Genocídio Indígena&quot;</text>
<text text-anchor="start" x="1010.5" y="-30.3" font-family="Helvetica,Arial,sans-serif" font-size="14.00">&quot;Processo de eliminação gradual </text>
<text text-anchor="start" x="1038.5" y="-15.3" font-family="Helvetica,Arial,sans-serif" font-size="14.00"> da identidade indígena&quot;</text>
</g>
<!-- C_ESCRAVISMO_INDIGENA&#45;&gt;C_GENOCIDIO_INDIGENA -->
<g id="edge5" class="edge">
<title>C_ESCRAVISMO_INDIGENA&#45;&gt;C_GENOCIDIO_INDIGENA</title>
<path fill="none" stroke="black" d="M1034.5,-134.9C1034.5,-121.7 1034.5,-106.83 1034.5,-92.93"/>
<polygon fill="black" stroke="black" points="1038,-92.53 1034.5,-82.53 1031,-92.53 1038,-92.53"/>
<text text-anchor="middle" x="1069" y="-104.8" font-family="Helvetica,Arial,sans-serif" font-size="14.00"> &#160;&#160;influencia</text>
</g>
<!-- E_1821_MUDANCA_CORTE -->
<g id="node9" class="node">
<title>E_1821_MUDANCA_CORTE</title>
<polygon fill="none" stroke="black" points="1232,-402.5 1232,-484.5 1603,-484.5 1603,-402.5 1232,-402.5"/>
<polygon fill="#e1e1e1" stroke="transparent" points="1240,-406.5 1240,-480.5 1595,-480.5 1595,-406.5 1240,-406.5"/>
<text text-anchor="start" x="1247.5" y="-460.3" font-family="Helvetica,Arial,sans-serif" font-weight="bold" font-size="14.00">1821</text>
<image xlink:href="w40/ptbr.png" width="60px" height="21px" preserveAspectRatio="xMinYMin meet" x="1389.5" y="-473.5"/>
<text text-anchor="start" x="1247.5" y="-432.3" font-family="Helvetica,Arial,sans-serif" font-size="14.00">&quot;Mudança da Corte</text>
<text text-anchor="start" x="1268.5" y="-417.3" font-family="Helvetica,Arial,sans-serif" font-size="14.00">Portuguesa&quot;</text>
<text text-anchor="start" x="1389.5" y="-432.3" font-family="Helvetica,Arial,sans-serif" font-size="14.00">&quot;Monarquia portuguesa migra de</text>
<text text-anchor="start" x="1396" y="-417.3" font-family="Helvetica,Arial,sans-serif" font-size="14.00"> Lisboa para o Rio de Janeiro.&quot;</text>
</g>
<!-- E_1889_GOLPE_REPUBLICA -->
<g id="node10" class="node">
<title>E_1889_GOLPE_REPUBLICA</title>
<polygon fill="none" stroke="black" points="1155.5,-268.5 1155.5,-350.5 1679.5,-350.5 1679.5,-268.5 1155.5,-268.5"/>
<polygon fill="#e1e1e1" stroke="transparent" points="1163.5,-272.5 1163.5,-346.5 1671.5,-346.5 1671.5,-272.5 1163.5,-272.5"/>
<text text-anchor="start" x="1170.5" y="-326.3" font-family="Helvetica,Arial,sans-serif" font-weight="bold" font-size="14.00">1889</text>
<image xlink:href="w40/br.png" width="30px" height="21px" preserveAspectRatio="xMinYMin meet" x="1324.5" y="-339.5"/>
<text text-anchor="start" x="1170.5" y="-298.3" font-family="Helvetica,Arial,sans-serif" font-size="14.00">&quot;Golpe da República&quot;</text>
<text text-anchor="start" x="1324.5" y="-298.3" font-family="Helvetica,Arial,sans-serif" font-size="14.00">&quot;Dom Pedro II é removido do poder por uma associação</text>
<text text-anchor="start" x="1333.5" y="-283.3" font-family="Helvetica,Arial,sans-serif" font-size="14.00"> entre militares golpistas e a burguesia escravocrata.&quot;</text>
</g>
<!-- E_1821_MUDANCA_CORTE&#45;&gt;E_1889_GOLPE_REPUBLICA -->
<g id="edge10" class="edge">
<title>E_1821_MUDANCA_CORTE&#45;&gt;E_1889_GOLPE_REPUBLICA</title>
<path fill="none" stroke="black" d="M1417.5,-402.18C1417.5,-389.13 1417.5,-374.49 1417.5,-360.81"/>
<polygon fill="black" stroke="black" points="1421,-360.57 1417.5,-350.57 1414,-360.57 1421,-360.57"/>
<text text-anchor="middle" x="1441.5" y="-372.8" font-family="Helvetica,Arial,sans-serif" font-size="14.00"> &#160;&#160;causa</text>
</g>
</g>
</svg>
