<?xml version="1.0" encoding="UTF-8" standalone="no"?>
<!DOCTYPE svg PUBLIC "-//W3C//DTD SVG 1.1//EN"
 "http://www.w3.org/Graphics/SVG/1.1/DTD/svg11.dtd">
<!-- Generated by graphviz version 2.43.0 (0)
 -->
<!-- Title: G Pages: 1 -->
<svg width="2184pt" height="739pt"
 viewBox="0.00 0.00 2184.00 739.00" xmlns="http://www.w3.org/2000/svg" xmlns:xlink="http://www.w3.org/1999/xlink">
<g id="graph0" class="graph" transform="scale(1 1) rotate(0) translate(4 735)">
<title>G</title>
<polygon fill="white" stroke="transparent" points="-4,4 -4,-735 2180,-735 2180,4 -4,4"/>
<!-- C_ESCRAVISMO -->
<g id="node1" class="node">
<title>C_ESCRAVISMO</title>
<polygon fill="none" stroke="black" points="612.5,-669.5 612.5,-730.5 759.5,-730.5 759.5,-669.5 612.5,-669.5"/>
<polygon fill="yellow" stroke="transparent" points="620.5,-673.5 620.5,-726.5 751.5,-726.5 751.5,-673.5 620.5,-673.5"/>
<text text-anchor="start" x="628" y="-708.8" font-family="Helvetica,Arial,sans-serif" font-weight="bold" font-size="14.00">CONCEITO</text>
<text text-anchor="start" x="628" y="-683.8" font-family="Helvetica,Arial,sans-serif" font-size="14.00">&quot;Escravismo&quot;</text>
<text text-anchor="start" x="734" y="-683.8" font-family="Helvetica,Arial,sans-serif" font-size="14.00">&quot;&quot;</text>
</g>
<!-- C_EXPANSAO_MARITMA -->
<g id="node2" class="node">
<title>C_EXPANSAO_MARITMA</title>
<polygon fill="none" stroke="black" points="377.5,-544 377.5,-610 590.5,-610 590.5,-544 377.5,-544"/>
<polygon fill="yellow" stroke="transparent" points="385.5,-548 385.5,-606 582.5,-606 582.5,-548 385.5,-548"/>
<image xlink:href="w40/pt.png" width="30px" height="20px" preserveAspectRatio="xMinYMin meet" x="546" y="-599"/>
<text text-anchor="start" x="393" y="-558.8" font-family="Helvetica,Arial,sans-serif" font-size="14.00">&quot;Expansão Marítima&quot;</text>
<text text-anchor="start" x="546" y="-558.8" font-family="Helvetica,Arial,sans-serif" font-size="14.00">&quot;&quot;</text>
</g>
<!-- C_ESCRAVISMO&#45;&gt;C_EXPANSAO_MARITMA -->
<g id="edge1" class="edge">
<title>C_ESCRAVISMO&#45;&gt;C_EXPANSAO_MARITMA</title>
<path fill="none" stroke="black" d="M636.59,-669.4C609.38,-653.1 575.35,-632.72 546.34,-615.34"/>
<polygon fill="black" stroke="black" points="547.89,-612.19 537.51,-610.05 544.29,-618.19 547.89,-612.19"/>
<text text-anchor="middle" x="633" y="-639.8" font-family="Helvetica,Arial,sans-serif" font-size="14.00"> &#160;&#160;financia</text>
</g>
<!-- C_ESCRAVISMO_PORTUGUES -->
<g id="node3" class="node">
<title>C_ESCRAVISMO_PORTUGUES</title>
<polygon fill="none" stroke="black" points="608.5,-536.5 608.5,-617.5 1163.5,-617.5 1163.5,-536.5 608.5,-536.5"/>
<polygon fill="yellow" stroke="transparent" points="616.5,-540.5 616.5,-613.5 1155.5,-613.5 1155.5,-540.5 616.5,-540.5"/>
<image xlink:href="w40/pt.png" width="30px" height="20px" preserveAspectRatio="xMinYMin meet" x="795" y="-606"/>
<text text-anchor="start" x="624" y="-565.8" font-family="Helvetica,Arial,sans-serif" font-size="14.00">&quot;Escravismo Português&quot;</text>
<text text-anchor="start" x="795" y="-565.8" font-family="Helvetica,Arial,sans-serif" font-size="14.00">&quot;Portugueses recorrem ao comercio de escravizados para </text>
<text text-anchor="start" x="846" y="-550.8" font-family="Helvetica,Arial,sans-serif" font-size="14.00">financiar/lucrar com a expansão maritma&quot;</text>
</g>
<!-- C_ESCRAVISMO&#45;&gt;C_ESCRAVISMO_PORTUGUES -->
<g id="edge2" class="edge">
<title>C_ESCRAVISMO&#45;&gt;C_ESCRAVISMO_PORTUGUES</title>
<path fill="none" stroke="black" d="M734.93,-669.4C758.09,-655.38 786.26,-638.34 811.97,-622.79"/>
<polygon fill="black" stroke="black" points="813.84,-625.75 820.59,-617.57 810.22,-619.76 813.84,-625.75"/>
<text text-anchor="middle" x="812" y="-639.8" font-family="Helvetica,Arial,sans-serif" font-size="14.00"> &#160;&#160;origina</text>
</g>
<!-- E_1500_PORTUGUESES_AMERICA -->
<g id="node7" class="node">
<title>E_1500_PORTUGUESES_AMERICA</title>
<polygon fill="none" stroke="black" points="0,-402.5 0,-484.5 416,-484.5 416,-402.5 0,-402.5"/>
<polygon fill="#e1e1e1" stroke="transparent" points="8,-406.5 8,-480.5 408,-480.5 408,-406.5 8,-406.5"/>
<text text-anchor="start" x="15" y="-460.3" font-family="Helvetica,Arial,sans-serif" font-weight="bold" font-size="14.00">1500</text>
<image xlink:href="w40/ptbr.png" width="60px" height="21px" preserveAspectRatio="xMinYMin meet" x="169" y="-473.5"/>
<text text-anchor="start" x="15" y="-432.3" font-family="Helvetica,Arial,sans-serif" font-size="14.00">&quot;Invasão da América&quot;</text>
<text text-anchor="start" x="169" y="-432.3" font-family="Helvetica,Arial,sans-serif" font-size="14.00">&quot;Chegada dos primeiros exploradores </text>
<text text-anchor="start" x="173.5" y="-417.3" font-family="Helvetica,Arial,sans-serif" font-size="14.00"> europeus no território sulamericano&quot;</text>
</g>
<!-- C_EXPANSAO_MARITMA&#45;&gt;E_1500_PORTUGUESES_AMERICA -->
<g id="edge6" class="edge">
<title>C_EXPANSAO_MARITMA&#45;&gt;E_1500_PORTUGUESES_AMERICA</title>
<path fill="none" stroke="black" d="M416.84,-544C382.19,-527.49 339.38,-507.1 301.56,-489.08"/>
<polygon fill="black" stroke="black" points="302.59,-485.69 292.06,-484.55 299.58,-492.01 302.59,-485.69"/>
<text text-anchor="middle" x="379" y="-506.8" font-family="Helvetica,Arial,sans-serif" font-size="14.00"> &#160;&#160;causa</text>
</g>
<!-- E_1543_PORTUGUESES_JAPAO -->
<g id="node8" class="node">
<title>E_1543_PORTUGUESES_JAPAO</title>
<polygon fill="none" stroke="black" points="434,-403 434,-484 932,-484 932,-403 434,-403"/>
<polygon fill="#e1e1e1" stroke="transparent" points="442,-407 442,-480 924,-480 924,-407 442,-407"/>
<text text-anchor="start" x="449" y="-459.8" font-family="Helvetica,Arial,sans-serif" font-weight="bold" font-size="14.00">1543</text>
<image xlink:href="w40/ptjp.png" width="60px" height="20px" preserveAspectRatio="xMinYMin meet" x="640" y="-472.5"/>
<text text-anchor="start" x="480" y="-432.3" font-family="Helvetica,Arial,sans-serif" font-size="14.00">&quot;Início da relação</text>
<text text-anchor="start" x="449" y="-417.3" font-family="Helvetica,Arial,sans-serif" font-size="14.00"> comercial com Japoneses&quot;</text>
<text text-anchor="start" x="640" y="-432.3" font-family="Helvetica,Arial,sans-serif" font-size="14.00">&quot;Portugueses chegam a ilha de Tanegashima </text>
<text text-anchor="start" x="726" y="-417.3" font-family="Helvetica,Arial,sans-serif" font-size="14.00"> no sul do Japão&quot;</text>
</g>
<!-- C_EXPANSAO_MARITMA&#45;&gt;E_1543_PORTUGUESES_JAPAO -->
<g id="edge7" class="edge">
<title>C_EXPANSAO_MARITMA&#45;&gt;E_1543_PORTUGUESES_JAPAO</title>
<path fill="none" stroke="black" d="M524.25,-543.94C541.39,-530.76 561.82,-515.65 581,-503 587.92,-498.44 595.21,-493.85 602.58,-489.36"/>
<polygon fill="black" stroke="black" points="604.49,-492.3 611.26,-484.14 600.88,-486.3 604.49,-492.3"/>
<text text-anchor="middle" x="605" y="-506.8" font-family="Helvetica,Arial,sans-serif" font-size="14.00"> &#160;&#160;causa</text>
</g>
<!-- C_ESCRAVISMO_INDIGENA -->
<g id="node4" class="node">
<title>C_ESCRAVISMO_INDIGENA</title>
<polygon fill="none" stroke="black" points="950,-403 950,-484 1114,-484 1114,-403 950,-403"/>
<polygon fill="yellow" stroke="transparent" points="958,-407 958,-480 1106,-480 1106,-407 958,-407"/>
<image xlink:href="w40/pt.png" width="30px" height="20px" preserveAspectRatio="xMinYMin meet" x="1069" y="-472.5"/>
<text text-anchor="start" x="965" y="-432.3" font-family="Helvetica,Arial,sans-serif" font-size="14.00">&quot;Escravismo </text>
<text text-anchor="start" x="974" y="-417.3" font-family="Helvetica,Arial,sans-serif" font-size="14.00"> Indígena&quot;</text>
<text text-anchor="start" x="1069" y="-424.8" font-family="Helvetica,Arial,sans-serif" font-size="14.00">&quot;&quot;</text>
</g>
<!-- C_ESCRAVISMO_PORTUGUES&#45;&gt;C_ESCRAVISMO_INDIGENA -->
<g id="edge3" class="edge">
<title>C_ESCRAVISMO_PORTUGUES&#45;&gt;C_ESCRAVISMO_INDIGENA</title>
<path fill="none" stroke="black" d="M930.2,-536.19C945.92,-522.03 963.77,-505.95 980.08,-491.26"/>
<polygon fill="black" stroke="black" points="982.86,-493.47 987.95,-484.18 978.18,-488.27 982.86,-493.47"/>
</g>
<!-- C_ESCRAVISMO_AFRICANO -->
<g id="node5" class="node">
<title>C_ESCRAVISMO_AFRICANO</title>
<polygon fill="none" stroke="black" points="1132.5,-403 1132.5,-484 1341.5,-484 1341.5,-403 1132.5,-403"/>
<polygon fill="yellow" stroke="transparent" points="1140.5,-407 1140.5,-480 1333.5,-480 1333.5,-407 1140.5,-407"/>
<image xlink:href="w40/pt.png" width="30px" height="20px" preserveAspectRatio="xMinYMin meet" x="1297" y="-472.5"/>
<text text-anchor="start" x="1170.5" y="-432.3" font-family="Helvetica,Arial,sans-serif" font-size="14.00">&quot;Escravismo </text>
<text text-anchor="start" x="1148" y="-417.3" font-family="Helvetica,Arial,sans-serif" font-size="14.00"> de Povos Africanos&quot;</text>
<text text-anchor="start" x="1297" y="-424.8" font-family="Helvetica,Arial,sans-serif" font-size="14.00">&quot;&quot;</text>
</g>
<!-- C_ESCRAVISMO_PORTUGUES&#45;&gt;C_ESCRAVISMO_AFRICANO -->
<g id="edge4" class="edge">
<title>C_ESCRAVISMO_PORTUGUES&#45;&gt;C_ESCRAVISMO_AFRICANO</title>
<path fill="none" stroke="black" d="M991.79,-536.37C1033.17,-520.86 1080.72,-503.05 1122.87,-487.26"/>
<polygon fill="black" stroke="black" points="1124.2,-490.5 1132.34,-483.71 1121.74,-483.94 1124.2,-490.5"/>
</g>
<!-- C_ESCRAVISMO_PORTUGUES&#45;&gt;E_1500_PORTUGUESES_AMERICA -->
<g id="edge8" class="edge">
<title>C_ESCRAVISMO_PORTUGUES&#45;&gt;E_1500_PORTUGUESES_AMERICA</title>
<path fill="none" stroke="black" d="M764.56,-536.42C722.09,-523.94 673.82,-511.27 629,-503 542.64,-487.07 516.97,-496.63 426.29,-485.1"/>
<polygon fill="black" stroke="black" points="426.49,-481.6 416.11,-483.75 425.57,-488.53 426.49,-481.6"/>
<text text-anchor="middle" x="728.5" y="-506.8" font-family="Helvetica,Arial,sans-serif" font-size="14.00"> &#160;&#160;influencia</text>
</g>
<!-- C_ESCRAVISMO_PORTUGUES&#45;&gt;E_1543_PORTUGUESES_JAPAO -->
<g id="edge9" class="edge">
<title>C_ESCRAVISMO_PORTUGUES&#45;&gt;E_1543_PORTUGUESES_JAPAO</title>
<path fill="none" stroke="black" d="M824.82,-536.37C802.05,-521.62 776.05,-504.77 752.58,-489.57"/>
<polygon fill="black" stroke="black" points="754.35,-486.55 744.06,-484.05 750.55,-492.43 754.35,-486.55"/>
<text text-anchor="middle" x="825.5" y="-506.8" font-family="Helvetica,Arial,sans-serif" font-size="14.00"> &#160;&#160;influencia</text>
</g>
<!-- C_GENOCIDIO_INDIGENA -->
<g id="node6" class="node">
<title>C_GENOCIDIO_INDIGENA</title>
<polygon fill="none" stroke="black" points="839,-268.5 839,-350.5 1225,-350.5 1225,-268.5 839,-268.5"/>
<polygon fill="yellow" stroke="transparent" points="847,-272.5 847,-346.5 1217,-346.5 1217,-272.5 847,-272.5"/>
<image xlink:href="w40/ptbr.png" width="60px" height="21px" preserveAspectRatio="xMinYMin meet" x="1008" y="-339.5"/>
<text text-anchor="start" x="854" y="-298.3" font-family="Helvetica,Arial,sans-serif" font-size="14.00">&quot;Genocídio Indígena&quot;</text>
<text text-anchor="start" x="1008" y="-298.3" font-family="Helvetica,Arial,sans-serif" font-size="14.00">&quot;Processo de eliminação gradual </text>
<text text-anchor="start" x="1036" y="-283.3" font-family="Helvetica,Arial,sans-serif" font-size="14.00"> da identidade indígena&quot;</text>
</g>
<!-- C_ESCRAVISMO_INDIGENA&#45;&gt;C_GENOCIDIO_INDIGENA -->
<g id="edge5" class="edge">
<title>C_ESCRAVISMO_INDIGENA&#45;&gt;C_GENOCIDIO_INDIGENA</title>
<path fill="none" stroke="black" d="M1032,-402.9C1032,-389.7 1032,-374.83 1032,-360.93"/>
<polygon fill="black" stroke="black" points="1035.5,-360.53 1032,-350.53 1028.5,-360.53 1035.5,-360.53"/>
<text text-anchor="middle" x="1066.5" y="-372.8" font-family="Helvetica,Arial,sans-serif" font-size="14.00"> &#160;&#160;influencia</text>
</g>
<!-- C_ABSOLUTISMO -->
<g id="node9" class="node">
<title>C_ABSOLUTISMO</title>
<polygon fill="none" stroke="black" points="1394,-669.5 1394,-730.5 1544,-730.5 1544,-669.5 1394,-669.5"/>
<polygon fill="yellow" stroke="transparent" points="1402,-673.5 1402,-726.5 1536,-726.5 1536,-673.5 1402,-673.5"/>
<text text-anchor="start" x="1409" y="-708.8" font-family="Helvetica,Arial,sans-serif" font-weight="bold" font-size="14.00">CONCEITO</text>
<text text-anchor="start" x="1409" y="-683.8" font-family="Helvetica,Arial,sans-serif" font-size="14.00">&quot;Absolutismo&quot;</text>
<text text-anchor="start" x="1518" y="-683.8" font-family="Helvetica,Arial,sans-serif" font-size="14.00">&quot;&quot;</text>
</g>
<!-- E_CRISE_ABSOLUTISMO -->
<g id="node10" class="node">
<title>E_CRISE_ABSOLUTISMO</title>
<polygon fill="none" stroke="black" points="1378,-559 1378,-595 1560,-595 1560,-559 1378,-559"/>
<text text-anchor="middle" x="1469" y="-573.3" font-family="Helvetica,Arial,sans-serif" font-size="14.00">E_CRISE_ABSOLUTISMO</text>
</g>
<!-- C_ABSOLUTISMO&#45;&gt;E_CRISE_ABSOLUTISMO -->
<g id="edge10" class="edge">
<title>C_ABSOLUTISMO&#45;&gt;E_CRISE_ABSOLUTISMO</title>
<path fill="none" stroke="black" d="M1469,-669.4C1469,-649.89 1469,-624.52 1469,-605.47"/>
<polygon fill="black" stroke="black" points="1472.5,-605.33 1469,-595.33 1465.5,-605.33 1472.5,-605.33"/>
<text text-anchor="middle" x="1495" y="-639.8" font-family="Helvetica,Arial,sans-serif" font-size="14.00"> &#160;&#160;resulta</text>
</g>
<!-- E_1789_REVOLUCAO_FRANCESA -->
<g id="node12" class="node">
<title>E_1789_REVOLUCAO_FRANCESA</title>
<polygon fill="none" stroke="black" points="1359.5,-410.5 1359.5,-476.5 1578.5,-476.5 1578.5,-410.5 1359.5,-410.5"/>
<polygon fill="#e1e1e1" stroke="transparent" points="1367.5,-414.5 1367.5,-472.5 1570.5,-472.5 1570.5,-414.5 1367.5,-414.5"/>
<text text-anchor="start" x="1375" y="-452.8" font-family="Helvetica,Arial,sans-serif" font-weight="bold" font-size="14.00">1789</text>
<image xlink:href="w40/fr.png" width="30px" height="20px" preserveAspectRatio="xMinYMin meet" x="1534" y="-465.5"/>
<text text-anchor="start" x="1375" y="-425.3" font-family="Helvetica,Arial,sans-serif" font-size="14.00">&quot;Revolução Francesa&quot;</text>
<text text-anchor="start" x="1534" y="-425.3" font-family="Helvetica,Arial,sans-serif" font-size="14.00">&quot;&quot;</text>
</g>
<!-- E_CRISE_ABSOLUTISMO&#45;&gt;E_1789_REVOLUCAO_FRANCESA -->
<g id="edge14" class="edge">
<title>E_CRISE_ABSOLUTISMO&#45;&gt;E_1789_REVOLUCAO_FRANCESA</title>
<path fill="none" stroke="black" d="M1469,-558.81C1469,-540.59 1469,-511.15 1469,-486.7"/>
<polygon fill="black" stroke="black" points="1472.5,-486.58 1469,-476.58 1465.5,-486.58 1472.5,-486.58"/>
<text text-anchor="middle" x="1503.5" y="-506.8" font-family="Helvetica,Arial,sans-serif" font-size="14.00"> &#160;&#160;influencia</text>
</g>
<!-- C_LIBERALISMO -->
<g id="node11" class="node">
<title>C_LIBERALISMO</title>
<polygon fill="none" stroke="black" points="1640,-546.5 1640,-607.5 1786,-607.5 1786,-546.5 1640,-546.5"/>
<polygon fill="yellow" stroke="transparent" points="1648,-550.5 1648,-603.5 1778,-603.5 1778,-550.5 1648,-550.5"/>
<text text-anchor="start" x="1655" y="-585.8" font-family="Helvetica,Arial,sans-serif" font-weight="bold" font-size="14.00">CONCEITO</text>
<text text-anchor="start" x="1655" y="-560.8" font-family="Helvetica,Arial,sans-serif" font-size="14.00">&quot;Liberalismo&quot;</text>
<text text-anchor="start" x="1760" y="-560.8" font-family="Helvetica,Arial,sans-serif" font-size="14.00">&quot;&quot;</text>
</g>
<!-- C_LIBERALISMO&#45;&gt;E_1789_REVOLUCAO_FRANCESA -->
<g id="edge11" class="edge">
<title>C_LIBERALISMO&#45;&gt;E_1789_REVOLUCAO_FRANCESA</title>
<path fill="none" stroke="black" d="M1658.24,-546.49C1622.6,-527.28 1575.82,-502.07 1537.69,-481.52"/>
<polygon fill="black" stroke="black" points="1539.16,-478.34 1528.7,-476.68 1535.84,-484.5 1539.16,-478.34"/>
<text text-anchor="middle" x="1633.5" y="-506.8" font-family="Helvetica,Arial,sans-serif" font-size="14.00"> &#160;&#160;influencia</text>
</g>
<!-- E_INDEPENDENCIA_AMERICANA -->
<g id="node13" class="node">
<title>E_INDEPENDENCIA_AMERICANA</title>
<polygon fill="none" stroke="black" points="1596.5,-425.5 1596.5,-461.5 1829.5,-461.5 1829.5,-425.5 1596.5,-425.5"/>
<text text-anchor="middle" x="1713" y="-439.8" font-family="Helvetica,Arial,sans-serif" font-size="14.00">E_INDEPENDENCIA_AMERICANA</text>
</g>
<!-- C_LIBERALISMO&#45;&gt;E_INDEPENDENCIA_AMERICANA -->
<g id="edge12" class="edge">
<title>C_LIBERALISMO&#45;&gt;E_INDEPENDENCIA_AMERICANA</title>
<path fill="none" stroke="black" d="M1713,-546.49C1713,-524.2 1713,-493.84 1713,-472.05"/>
<polygon fill="black" stroke="black" points="1716.5,-471.82 1713,-461.82 1709.5,-471.82 1716.5,-471.82"/>
<text text-anchor="middle" x="1747.5" y="-506.8" font-family="Helvetica,Arial,sans-serif" font-size="14.00"> &#160;&#160;influencia</text>
</g>
<!-- E_REVOLUCAO_BURGUESA_PORTUGAL -->
<g id="node14" class="node">
<title>E_REVOLUCAO_BURGUESA_PORTUGAL</title>
<polygon fill="none" stroke="black" points="1847.5,-425.5 1847.5,-461.5 2134.5,-461.5 2134.5,-425.5 1847.5,-425.5"/>
<text text-anchor="middle" x="1991" y="-439.8" font-family="Helvetica,Arial,sans-serif" font-size="14.00">E_REVOLUCAO_BURGUESA_PORTUGAL</text>
</g>
<!-- C_LIBERALISMO&#45;&gt;E_REVOLUCAO_BURGUESA_PORTUGAL -->
<g id="edge13" class="edge">
<title>C_LIBERALISMO&#45;&gt;E_REVOLUCAO_BURGUESA_PORTUGAL</title>
<path fill="none" stroke="black" d="M1775.39,-546.49C1827.06,-522.05 1899.27,-487.89 1945.59,-465.98"/>
<polygon fill="black" stroke="black" points="1947.23,-469.07 1954.78,-461.63 1944.24,-462.75 1947.23,-469.07"/>
<text text-anchor="middle" x="1895.5" y="-506.8" font-family="Helvetica,Arial,sans-serif" font-size="14.00"> &#160;&#160;influencia</text>
</g>
<!-- E_1807_NAPOLEAO_INVADE_PORTUGAL -->
<g id="node15" class="node">
<title>E_1807_NAPOLEAO_INVADE_PORTUGAL</title>
<polygon fill="none" stroke="black" points="1270,-269 1270,-350 1668,-350 1668,-269 1270,-269"/>
<polygon fill="#e1e1e1" stroke="transparent" points="1278,-273 1278,-346 1660,-346 1660,-273 1278,-273"/>
<text text-anchor="start" x="1285" y="-325.8" font-family="Helvetica,Arial,sans-serif" font-weight="bold" font-size="14.00">1807</text>
<image xlink:href="w40/fr.png" width="30px" height="20px" preserveAspectRatio="xMinYMin meet" x="1442" y="-338.5"/>
<text text-anchor="start" x="1285" y="-298.3" font-family="Helvetica,Arial,sans-serif" font-size="14.00">&quot;Franceses ameaçam</text>
<text text-anchor="start" x="1305" y="-283.3" font-family="Helvetica,Arial,sans-serif" font-size="14.00"> invadir Lisboa&quot;</text>
<text text-anchor="start" x="1449.5" y="-298.3" font-family="Helvetica,Arial,sans-serif" font-size="14.00">&quot;Tropas francesas se organizam</text>
<text text-anchor="start" x="1442" y="-283.3" font-family="Helvetica,Arial,sans-serif" font-size="14.00"> para entrar no território português&quot;</text>
</g>
<!-- E_1789_REVOLUCAO_FRANCESA&#45;&gt;E_1807_NAPOLEAO_INVADE_PORTUGAL -->
<g id="edge15" class="edge">
<title>E_1789_REVOLUCAO_FRANCESA&#45;&gt;E_1807_NAPOLEAO_INVADE_PORTUGAL</title>
<path fill="none" stroke="black" d="M1469,-410.21C1469,-395.29 1469,-377.24 1469,-360.61"/>
<polygon fill="black" stroke="black" points="1472.5,-360.48 1469,-350.48 1465.5,-360.48 1472.5,-360.48"/>
<text text-anchor="middle" x="1499.5" y="-372.8" font-family="Helvetica,Arial,sans-serif" font-size="14.00"> &#160;&#160;precede</text>
</g>
<!-- E_1821_DOM_PEDRO_I_RETORNA -->
<g id="node17" class="node">
<title>E_1821_DOM_PEDRO_I_RETORNA</title>
<polygon fill="none" stroke="black" points="1806,-276 1806,-343 2176,-343 2176,-276 1806,-276"/>
<polygon fill="#e1e1e1" stroke="transparent" points="1814,-280 1814,-339 2168,-339 2168,-280 1814,-280"/>
<text text-anchor="start" x="1821" y="-318.3" font-family="Helvetica,Arial,sans-serif" font-weight="bold" font-size="14.00">1821</text>
<image xlink:href="w40/ptbr.png" width="60px" height="21px" preserveAspectRatio="xMinYMin meet" x="2101" y="-331.5"/>
<text text-anchor="start" x="1821" y="-290.3" font-family="Helvetica,Arial,sans-serif" font-size="14.00">&quot;Dom Pedro I decide retornar para Lisboa&quot;</text>
<text text-anchor="start" x="2101" y="-290.3" font-family="Helvetica,Arial,sans-serif" font-size="14.00">&quot;&#45;&quot;</text>
</g>
<!-- E_REVOLUCAO_BURGUESA_PORTUGAL&#45;&gt;E_1821_DOM_PEDRO_I_RETORNA -->
<g id="edge17" class="edge">
<title>E_REVOLUCAO_BURGUESA_PORTUGAL&#45;&gt;E_1821_DOM_PEDRO_I_RETORNA</title>
<path fill="none" stroke="black" d="M1991,-425.24C1991,-407.08 1991,-377.8 1991,-353.36"/>
<polygon fill="black" stroke="black" points="1994.5,-353.23 1991,-343.23 1987.5,-353.23 1994.5,-353.23"/>
<text text-anchor="middle" x="2015" y="-372.8" font-family="Helvetica,Arial,sans-serif" font-size="14.00"> &#160;&#160;causa</text>
</g>
<!-- E_1807_MUDANCA_CORTE -->
<g id="node16" class="node">
<title>E_1807_MUDANCA_CORTE</title>
<polygon fill="none" stroke="black" points="1283.5,-134.5 1283.5,-216.5 1654.5,-216.5 1654.5,-134.5 1283.5,-134.5"/>
<polygon fill="#e1e1e1" stroke="transparent" points="1291.5,-138.5 1291.5,-212.5 1646.5,-212.5 1646.5,-138.5 1291.5,-138.5"/>
<text text-anchor="start" x="1299" y="-192.3" font-family="Helvetica,Arial,sans-serif" font-weight="bold" font-size="14.00">1807</text>
<image xlink:href="w40/ptbr.png" width="60px" height="21px" preserveAspectRatio="xMinYMin meet" x="1441" y="-205.5"/>
<text text-anchor="start" x="1299" y="-164.3" font-family="Helvetica,Arial,sans-serif" font-size="14.00">&quot;Mudança da Corte</text>
<text text-anchor="start" x="1320.5" y="-149.3" font-family="Helvetica,Arial,sans-serif" font-size="14.00">Portuguesa&quot;</text>
<text text-anchor="start" x="1441" y="-164.3" font-family="Helvetica,Arial,sans-serif" font-size="14.00">&quot;Monarquia portuguesa migra de</text>
<text text-anchor="start" x="1447.5" y="-149.3" font-family="Helvetica,Arial,sans-serif" font-size="14.00"> Lisboa para o Rio de Janeiro.&quot;</text>
</g>
<!-- E_1807_NAPOLEAO_INVADE_PORTUGAL&#45;&gt;E_1807_MUDANCA_CORTE -->
<g id="edge16" class="edge">
<title>E_1807_NAPOLEAO_INVADE_PORTUGAL&#45;&gt;E_1807_MUDANCA_CORTE</title>
<path fill="none" stroke="black" d="M1469,-268.9C1469,-255.7 1469,-240.83 1469,-226.93"/>
<polygon fill="black" stroke="black" points="1472.5,-226.53 1469,-216.53 1465.5,-226.53 1472.5,-226.53"/>
<text text-anchor="middle" x="1493" y="-238.8" font-family="Helvetica,Arial,sans-serif" font-size="14.00"> &#160;&#160;causa</text>
</g>
<!-- E_1889_GOLPE_REPUBLICA -->
<g id="node18" class="node">
<title>E_1889_GOLPE_REPUBLICA</title>
<polygon fill="none" stroke="black" points="1207,-0.5 1207,-82.5 1731,-82.5 1731,-0.5 1207,-0.5"/>
<polygon fill="#e1e1e1" stroke="transparent" points="1215,-4.5 1215,-78.5 1723,-78.5 1723,-4.5 1215,-4.5"/>
<text text-anchor="start" x="1222" y="-58.3" font-family="Helvetica,Arial,sans-serif" font-weight="bold" font-size="14.00">1889</text>
<image xlink:href="w40/br.png" width="30px" height="21px" preserveAspectRatio="xMinYMin meet" x="1376" y="-71.5"/>
<text text-anchor="start" x="1222" y="-30.3" font-family="Helvetica,Arial,sans-serif" font-size="14.00">&quot;Golpe da República&quot;</text>
<text text-anchor="start" x="1376" y="-30.3" font-family="Helvetica,Arial,sans-serif" font-size="14.00">&quot;Dom Pedro II é removido do poder por uma associação</text>
<text text-anchor="start" x="1385" y="-15.3" font-family="Helvetica,Arial,sans-serif" font-size="14.00"> entre militares golpistas e a burguesia escravocrata.&quot;</text>
</g>
<!-- E_1807_MUDANCA_CORTE&#45;&gt;E_1889_GOLPE_REPUBLICA -->
<g id="edge18" class="edge">
<title>E_1807_MUDANCA_CORTE&#45;&gt;E_1889_GOLPE_REPUBLICA</title>
<path fill="none" stroke="black" d="M1469,-134.18C1469,-121.13 1469,-106.49 1469,-92.81"/>
<polygon fill="black" stroke="black" points="1472.5,-92.57 1469,-82.57 1465.5,-92.57 1472.5,-92.57"/>
<text text-anchor="middle" x="1493" y="-104.8" font-family="Helvetica,Arial,sans-serif" font-size="14.00"> &#160;&#160;causa</text>
</g>
</g>
</svg>
